<?xml version="1.0" encoding="UTF-8" standalone="no"?>
<!DOCTYPE svg PUBLIC "-//W3C//DTD SVG 1.1//EN" "http://www.w3.org/Graphics/SVG/1.1/DTD/svg11.dtd">
<svg xmlns="http://www.w3.org/2000/svg" version="1.1" viewBox="0.00 0.00 1024.00 1024.00">
<g stroke-width="2.00" fill="none" stroke-linecap="butt">
<path stroke="#9c9b98" vector-effect="non-scaling-stroke" d="
  M 458.61 239.85
  Q 462.69 239.85 466.93 240.22
  C 470.74 240.55 474.53 240.47 478.23 240.57
  Q 480.79 240.64 483.38 240.09
  Q 486.83 239.36 490.55 239.88
  Q 491.03 239.94 491.36 240.29
  Q 494.10 243.21 499.09 242.78
  Q 501.43 242.58 504.25 240.38
  Q 511.07 235.09 517.83 230.30
  Q 519.50 229.12 520.87 227.19
  Q 521.18 226.76 520.94 226.29
  C 517.48 219.45 523.52 215.39 525.80 209.67
  C 527.47 205.48 528.81 200.19 533.33 198.24
  Q 533.84 198.02 533.90 197.46
  Q 534.63 190.38 534.73 182.68
  C 534.76 180.27 534.40 177.76 532.53 176.03
  Q 529.89 173.58 528.91 170.50
  Q 526.57 163.20 524.04 156.13
  Q 522.95 153.11 524.05 150.00
  C 524.55 148.59 523.89 147.27 522.95 146.27
  Q 519.52 142.58 515.62 138.81
  Q 513.75 137.01 511.72 136.95
  Q 505.11 136.78 500.19 134.17
  Q 497.41 132.70 494.31 131.59
  C 491.41 130.56 489.37 127.83 487.58 125.31
  C 486.31 123.52 483.99 123.30 482.00 123.27
  Q 474.59 123.17 466.78 123.24
  C 461.98 123.29 462.48 128.32 458.97 129.83
  Q 453.56 132.17 447.67 134.55
  C 444.45 135.85 441.30 136.15 437.97 136.59
  Q 436.93 136.73 436.02 137.43
  C 432.47 140.18 424.45 146.55 425.49 151.34
  C 426.86 157.63 422.80 161.09 421.94 166.82
  Q 421.62 168.95 420.56 171.31
  C 419.03 174.70 415.86 176.42 415.51 180.34
  Q 414.93 186.87 415.65 195.18
  C 416.03 199.60 419.77 198.96 421.50 202.24
  Q 424.35 207.63 426.05 212.95
  Q 426.62 214.73 428.19 216.29
  C 430.33 218.40 429.84 221.48 429.05 224.04
  C 428.20 226.79 430.42 229.86 432.56 231.33
  C 436.59 234.12 441.51 236.50 445.17 239.76
  C 448.69 242.89 453.86 244.09 457.37 240.39
  Q 457.88 239.85 458.61 239.85"
/>
<path stroke="#9c9b98" vector-effect="non-scaling-stroke" d="
  M 718.6150 170.5273
  A 5.89 5.89 0.0 0 0 712.7456 164.6168
  L 668.8458 164.4635
  A 5.89 5.89 0.0 0 0 662.9353 170.3330
  L 662.7850 213.3927
  A 5.89 5.89 0.0 0 0 668.6544 219.3032
  L 712.5542 219.4565
  A 5.89 5.89 0.0 0 0 718.4647 213.5870
  L 718.6150 170.5273"
/>
<path stroke="#9c9b98" vector-effect="non-scaling-stroke" d="
  M 218.17 314.15
  C 218.22 303.79 221.75 294.36 232.51 291.28
  Q 235.53 290.42 247.18 290.45
  Q 294.35 290.54 342.36 290.53
  C 350.15 290.53 350.05 277.45 341.19 277.45
  Q 290.97 277.49 236.56 277.42
  C 221.86 277.40 210.52 286.87 206.19 300.97
  Q 204.57 306.23 204.65 318.98
  Q 204.88 356.25 204.59 395.62
  Q 204.58 397.01 204.87 398.36
  Q 205.95 403.35 210.89 403.51
  C 218.66 403.77 218.07 398.49 218.06 392.19
  Q 217.99 353.32 218.17 314.15"
/>
<path stroke="#b4e3fa" vector-effect="non-scaling-stroke" d="
  M 606.95 392.16
  L 607.04 316.19
  A 1.36 1.36 0.0 0 0 605.68 314.83
  L 243.22 314.69
  A 0.72 0.71 90.0 0 0 242.51 315.41
  L 242.69 537.05"
/>
<path stroke="#9c9b98" vector-effect="non-scaling-stroke" d="
  M 242.69 537.05
  Q 239.91 541.89 241.97 546.55
  C 243.18 549.30 245.88 549.66 248.52 549.66
  Q 410.06 549.63 571.35 549.60
  A 0.90 0.90 0.0 0 1 572.25 550.50
  L 572.21 608.01
  A 0.80 0.80 0.0 0 1 571.35 608.81
  Q 564.76 608.36 558.25 608.36
  Q 445.29 608.37 331.20 608.20
  A 2.31 2.28 -12.6 0 1 329.15 606.92
  C 327.13 602.79 321.39 596.35 316.30 599.55
  Q 313.54 601.28 311.50 604.91"
/>
<path stroke="#cbeafb" vector-effect="non-scaling-stroke" d="
  M 311.50 604.91
  Q 302.72 603.66 298.84 610.28
  Q 298.55 610.78 298.64 611.35
  Q 298.80 612.32 298.20 613.03
  A 0.42 0.41 58.0 0 1 297.48 612.86
  Q 296.34 608.38 292.64 605.81"
/>
<path stroke="#9c9b98" vector-effect="non-scaling-stroke" d="
  M 292.64 605.81
  Q 295.27 602.55 297.40 599.21
  C 300.92 593.67 296.86 585.86 289.89 588.92
  C 288.03 589.73 286.78 591.46 285.47 592.99
  Q 285.12 593.39 284.60 593.48
  Q 283.31 593.70 282.08 593.71
  Q 250.93 593.79 218.82 593.78
  A 0.87 0.86 -0.0 0 1 217.95 592.92
  Q 218.16 506.99 217.99 426.88
  C 217.99 424.30 218.30 420.07 215.16 419.09
  Q 210.42 417.61 205.77 420.74
  Q 204.76 421.43 204.76 422.66
  Q 204.63 508.64 204.70 592.84
  A 1.15 1.15 0.0 0 1 203.55 593.99
  Q 183.22 594.04 163.00 593.89
  C 149.11 593.78 137.33 603.07 133.10 616.03
  Q 131.63 620.51 131.66 630.15
  Q 131.76 671.98 131.56 713.74
  Q 131.53 719.00 131.93 723.82
  Q 132.72 733.56 139.65 740.99
  C 140.61 742.02 141.64 742.90 142.64 743.87
  Q 143.29 744.50 142.39 744.51
  Q 135.66 744.62 127.86 744.68
  C 123.82 744.71 119.40 745.69 119.50 750.59
  C 119.65 757.26 124.10 756.96 129.68 756.95
  Q 304.86 756.90 470.50 757.04
  C 505.65 757.07 540.80 756.80 576.01 756.97
  Q 586.42 757.03 596.00 757.02
  Q 747.31 756.96 898.62 757.22
  Q 899.26 757.22 899.89 757.25
  C 906.00 757.56 907.40 747.14 902.20 745.49
  C 897.81 744.10 891.48 744.84 886.75 744.80
  A 0.36 0.35 25.9 0 1 886.53 744.17
  Q 896.53 735.96 896.58 721.95
  Q 896.78 656.69 896.71 589.61
  C 896.70 576.58 887.77 565.27 875.79 561.37
  Q 871.13 559.86 863.66 559.93
  Q 843.94 560.14 822.94 559.87
  Q 821.88 559.85 821.87 558.79
  Q 821.74 496.74 821.78 423.46
  Q 821.78 418.12 820.44 413.83
  C 817.34 403.94 808.89 395.34 798.71 393.08
  Q 794.34 392.11 789.16 392.12
  Q 717.61 392.35 645.49 392.27
  Q 644.71 392.27 644.71 391.48
  Q 644.68 355.19 644.62 315.10
  Q 644.60 305.44 643.17 300.90
  Q 638.23 285.32 622.94 279.28
  Q 618.65 277.58 614.72 277.53
  C 584.49 277.15 553.89 277.53 523.25 277.39
  Q 455.39 277.08 390.00 277.42
  Q 381.81 277.46 374.25 277.25
  Q 370.72 277.16 368.39 278.34
  C 364.42 280.35 363.98 287.76 368.22 289.69
  Q 370.17 290.58 373.65 290.58
  Q 488.06 290.47 609.10 290.50
  C 617.20 290.50 624.16 292.81 628.36 300.11
  Q 631.51 305.61 631.51 312.89
  Q 631.49 353.91 631.50 391.62
  A 0.63 0.62 -89.6 0 1 630.87 392.25
  L 606.95 392.16"
/>
<path stroke="#6b889a" vector-effect="non-scaling-stroke" d="
  M 292.64 605.81
  L 287.51 612.21
  A 1.26 1.25 -48.9 0 0 287.62 613.90
  L 296.82 622.67
  A 0.53 0.53 0.0 0 0 297.60 622.61
  L 311.50 604.91"
/>
<path stroke="#548099" vector-effect="non-scaling-stroke" d="
  M 242.69 537.05
  L 571.48 536.82
  Q 572.25 536.82 572.25 536.05
  Q 572.58 489.35 572.31 442.25
  Q 572.25 432.25 572.60 425.02
  Q 573.53 405.92 589.96 395.97
  Q 593.85 393.61 598.50 392.76
  Q 601.96 392.13 606.95 392.16"
/>
<path stroke="#9c9b98" vector-effect="non-scaling-stroke" d="
  M 752.9806 317.7900
  A 18.35 18.10 44.8 0 0 752.7139 292.0168
  A 18.35 18.10 44.8 0 0 726.9394 291.9300
  A 18.35 18.10 44.8 0 0 727.2061 317.7032
  A 18.35 18.10 44.8 0 0 752.9806 317.7900"
/>
<path stroke="#9c9b98" vector-effect="non-scaling-stroke" d="
  M 869.9305 453.4903
  A 5.05 5.05 0.0 0 0 864.8894 448.4315
  L 840.2894 448.3886
  A 5.05 5.05 0.0 0 0 835.2306 453.4297
  L 835.1895 476.9897
  A 5.05 5.05 0.0 0 0 840.2306 482.0485
  L 864.8306 482.0914
  A 5.05 5.05 0.0 0 0 869.8894 477.0503
  L 869.9305 453.4903"
/>
<path stroke="#fba59e" vector-effect="non-scaling-stroke" d="
  M 144.80 513.90
  A 0.62 0.62 0.0 0 0 144.18 513.28
  L 113.10 513.28
  A 0.62 0.62 0.0 0 0 112.48 513.90
  L 112.48 535.78
  A 0.62 0.62 0.0 0 0 113.10 536.40
  L 144.18 536.40
  A 0.62 0.62 0.0 0 0 144.80 535.78
  L 144.80 513.90"
/>
<path stroke="#9c9b98" vector-effect="non-scaling-stroke" d="
  M 445.9357 575.2568
  A 14.59 14.09 -9.6 0 0 429.2002 563.7973
  A 14.59 14.09 -9.6 0 0 417.1643 580.1232
  A 14.59 14.09 -9.6 0 0 433.8998 591.5827
  A 14.59 14.09 -9.6 0 0 445.9357 575.2568"
/>
<path stroke="#9c9b98" vector-effect="non-scaling-stroke" d="
  M 392.91 967.97
  C 398.37 970.04 402.46 974.54 399.73 980.73
  C 397.36 986.09 391.43 987.39 386.02 986.68
  Q 376.89 985.48 375.71 975.11
  Q 375.61 974.26 374.75 974.26
  L 368.56 974.26
  A 0.87 0.87 0.0 0 0 367.70 975.26
  C 369.97 990.37 384.44 995.30 397.76 991.19
  C 404.08 989.24 407.92 984.00 407.90 977.30
  C 407.86 963.94 394.32 960.99 384.44 957.52
  C 379.56 955.81 375.55 951.42 377.18 946.00
  Q 378.36 942.06 382.42 940.75
  C 389.64 938.41 398.27 939.85 399.90 948.47
  Q 400.02 949.12 400.68 949.22
  L 406.56 950.11
  Q 407.26 950.21 407.31 949.51
  Q 407.80 943.50 403.46 939.29
  C 396.77 932.78 385.81 932.01 377.65 935.63
  C 370.77 938.67 367.79 946.03 369.93 953.12
  C 372.52 961.71 385.58 965.19 392.91 967.97"
/>
<path stroke="#9c9b98" vector-effect="non-scaling-stroke" d="
  M 470.81 966.49
  C 475.79 964.60 480.04 961.44 481.23 956.24
  C 484.26 942.95 477.02 934.55 464.12 934.10
  Q 454.01 933.75 443.93 933.78
  A 0.42 0.42 0.0 0 0 443.52 934.20
  L 443.41 990.95
  Q 443.41 991.56 444.01 991.56
  L 450.72 991.51
  Q 451.20 991.51 451.20 991.03
  L 451.25 968.26
  A 0.66 0.66 0.0 0 1 451.89 967.60
  Q 456.00 967.48 459.94 967.82
  Q 462.65 968.05 464.31 970.49
  Q 469.56 978.24 474.99 987.48
  Q 476.04 989.28 477.28 990.86
  Q 477.99 991.77 479.15 991.76
  L 483.97 991.74
  Q 485.01 991.73 484.53 990.81
  Q 480.25 982.61 475.24 973.77
  C 473.94 971.49 472.30 969.49 470.56 967.51
  Q 469.95 966.82 470.81 966.49"
/>
<path stroke="#9c9b98" vector-effect="non-scaling-stroke" d="
  M 648.1201 934.3631
  A 0.26 0.26 0.0 0 0 647.8597 934.1036
  L 640.4197 934.1165
  A 0.26 0.26 0.0 0 0 640.1601 934.3770
  L 640.2599 991.5169
  A 0.26 0.26 0.0 0 0 640.5203 991.7764
  L 647.9603 991.7635
  A 0.26 0.26 0.0 0 0 648.2199 991.5030
  L 648.1201 934.3631"
/>
<path stroke="#9c9b98" vector-effect="non-scaling-stroke" d="
  M 668.89 967.43
  A 0.42 0.42 0.0 0 1 669.32 967.01
  L 678.96 967.25
  A 3.47 3.45 73.9 0 1 681.77 968.81
  Q 689.39 980.42 695.93 991.45
  Q 695.95 991.49 696.00 991.51
  Q 696.87 991.87 703.99 991.58
  A 0.15 0.15 0.0 0 0 704.11 991.36
  L 688.98 966.04
  Q 688.63 965.45 689.26 965.18
  C 694.68 962.87 699.53 959.83 700.06 953.26
  Q 701.07 940.83 691.35 936.12
  Q 686.96 934.00 678.35 934.03
  Q 669.64 934.06 661.74 933.94
  Q 661.45 933.93 661.45 934.22
  L 661.56 991.27
  A 0.47 0.46 90.0 0 0 662.02 991.74
  L 668.51 991.76
  Q 669.03 991.76 669.03 991.24
  L 668.89 967.43"
/>
<path stroke="#9c9b98" vector-effect="non-scaling-stroke" d="
  M 356.0490 934.5866
  A 0.35 0.35 0.0 0 0 355.6996 934.2360
  L 348.8596 934.2241
  A 0.35 0.35 0.0 0 0 348.5090 934.5735
  L 348.4110 990.7534
  A 0.35 0.35 0.0 0 0 348.7604 991.1040
  L 355.6004 991.1159
  A 0.35 0.35 0.0 0 0 355.9510 990.7665
  L 356.0490 934.5866"
/>
<path stroke="#9c9b98" vector-effect="non-scaling-stroke" d="
  M 501.48 965.20
  A 0.66 0.66 0.0 0 1 502.15 964.54
  L 525.61 964.71
  A 0.66 0.66 0.0 0 0 526.27 964.03
  L 526.06 959.10
  A 0.66 0.66 0.0 0 0 525.40 958.47
  L 502.35 958.23
  A 0.66 0.66 0.0 0 1 501.69 957.57
  L 501.51 941.30
  A 0.66 0.66 0.0 0 1 502.17 940.63
  L 529.43 940.74
  A 0.66 0.66 0.0 0 0 530.10 940.07
  L 530.07 934.89
  A 0.66 0.66 0.0 0 0 529.41 934.23
  L 494.95 934.31
  A 0.66 0.66 0.0 0 0 494.29 934.97
  L 494.28 990.96
  A 0.66 0.66 0.0 0 0 494.93 991.62
  L 529.84 991.98
  A 0.66 0.66 0.0 0 0 530.51 991.32
  L 530.52 986.24
  A 0.66 0.66 0.0 0 0 529.86 985.58
  L 502.21 985.45
  A 0.66 0.66 0.0 0 1 501.56 984.80
  L 501.48 965.20"
/>
<path stroke="#9c9b98" vector-effect="non-scaling-stroke" d="
  M 548.45 968.42
  Q 555.51 968.56 562.51 968.45
  C 572.49 968.28 579.64 962.80 579.75 952.13
  Q 579.86 940.08 570.15 935.82
  Q 565.87 933.95 557.62 934.11
  Q 548.43 934.29 541.02 934.24
  A 0.74 0.74 0.0 0 0 540.28 934.98
  L 540.05 990.76
  A 0.96 0.95 0.3 0 0 541.01 991.72
  L 546.78 991.74
  Q 547.55 991.74 547.55 990.97
  L 547.59 969.26
  Q 547.59 968.40 548.45 968.42"
/>
<path stroke="#9c9b98" vector-effect="non-scaling-stroke" d="
  M 594.83 977.10
  A 0.98 0.96 10.5 0 1 595.74 976.49
  L 617.96 976.47
  Q 618.95 976.47 619.32 977.39
  L 624.81 991.22
  Q 624.91 991.47 625.17 991.48
  L 632.76 991.79
  Q 632.96 991.79 632.88 991.61
  L 610.76 935.46
  A 1.93 1.92 79.3 0 0 608.97 934.23
  L 604.31 934.24
  A 0.71 0.71 0.0 0 0 603.67 934.67
  Q 601.52 939.84 599.69 944.72
  Q 591.26 967.25 581.08 991.87
  A 0.11 0.10 -77.0 0 0 581.17 992.02
  Q 584.69 992.13 588.58 992.15
  A 0.35 0.34 -78.5 0 0 588.90 991.93
  L 594.83 977.10"
/>
<path stroke="#9c9b98" vector-effect="non-scaling-stroke" d="
  M 433.9038 969.1048
  A 1.42 1.42 0.0 0 0 432.4789 967.6898
  L 415.1590 967.7502
  A 1.42 1.42 0.0 0 0 413.7440 969.1752
  L 413.7562 972.6752
  A 1.42 1.42 0.0 0 0 415.1811 974.0902
  L 432.5010 974.0298
  A 1.42 1.42 0.0 0 0 433.9160 972.6048
  L 433.9038 969.1048"
/>
<path stroke="#9c9b98" vector-effect="non-scaling-stroke" d="
  M 505.65 205.95
  C 523.74 178.00 501.88 143.43 468.95 147.62
  C 456.22 149.23 445.26 158.75 440.51 170.84
  C 435.03 184.77 438.32 199.37 448.00 210.60
  Q 456.73 220.72 469.89 222.17
  C 484.16 223.73 497.73 218.20 505.65 205.95"
/>
<path stroke="#9c9b98" vector-effect="non-scaling-stroke" d="
  M 494.4546 187.5630
  A 19.96 19.73 9.7 0 0 478.1043 164.7521
  A 19.96 19.73 9.7 0 0 455.1054 180.8370
  A 19.96 19.73 9.7 0 0 471.4557 203.6479
  A 19.96 19.73 9.7 0 0 494.4546 187.5630"
/>
<path stroke="#9a433d" vector-effect="non-scaling-stroke" d="
  M 706.3350 177.3173
  A 0.57 0.57 0.0 0 0 705.7660 176.7463
  L 675.6061 176.6937
  A 0.57 0.57 0.0 0 0 675.0351 177.2627
  L 674.9850 205.9627
  A 0.57 0.57 0.0 0 0 675.5540 206.5337
  L 705.7139 206.5863
  A 0.57 0.57 0.0 0 0 706.2849 206.0173
  L 706.3350 177.3173"
/>
<path stroke="#548099" vector-effect="non-scaling-stroke" d="
  M 608.79 744.07
  Q 646.20 744.06 683.00 743.83
  Q 694.86 743.76 708.49 743.80
  Q 747.72 743.92 785.99 743.80
  Q 797.20 743.77 803.92 735.66
  C 807.92 730.84 809.32 727.38 809.32 720.81
  Q 809.35 629.78 809.21 540.75
  C 809.15 501.41 809.62 462.79 809.43 428.99
  C 809.37 419.31 807.61 412.29 798.25 407.34
  C 794.44 405.32 789.48 405.25 785.00 405.27
  Q 736.22 405.41 611.89 405.25"
/>
<path stroke="#6b889a" vector-effect="non-scaling-stroke" d="
  M 611.89 405.25
  Q 604.84 405.12 602.00 405.78
  Q 589.61 408.67 585.99 420.06
  C 584.83 423.69 584.85 428.93 584.89 433.00
  Q 585.06 451.75 585.02 472.75
  Q 584.85 585.76 584.82 697.50
  Q 584.82 706.92 584.87 716.25
  Q 584.93 726.88 586.43 730.59
  Q 589.46 738.06 597.27 741.53
  Q 602.81 743.99 608.79 744.07"
/>
<path stroke="#83d0fc" vector-effect="non-scaling-stroke" d="
  M 611.89 405.25
  Q 605.05 414.09 605.06 423.50
  Q 605.33 573.62 605.20 723.75
  Q 605.20 733.52 608.79 744.07"
/>
<path stroke="#9a433d" vector-effect="non-scaling-stroke" d="
  M 881.94 608.96
  C 883.78 621.63 879.61 633.34 869.55 640.74
  Q 860.59 647.32 850.37 646.78
  Q 831.31 645.76 822.69 629.01
  Q 822.09 627.84 822.10 629.16
  C 822.28 649.91 822.17 670.55 822.50 691.25
  Q 822.77 707.74 822.38 725.01
  C 822.21 732.26 819.09 737.56 814.05 742.96
  A 0.66 0.66 0.0 0 0 814.53 744.07
  Q 837.28 743.94 859.86 743.72
  C 864.03 743.68 867.44 743.05 871.27 741.15
  Q 884.04 734.84 884.04 719.44
  Q 884.02 673.51 884.11 630.07
  Q 884.13 619.35 883.95 610.90
  Q 883.76 601.97 883.96 591.16
  Q 884.06 585.69 882.59 582.53
  C 879.30 575.47 871.12 572.30 863.25 572.26
  Q 842.64 572.18 822.47 572.30
  A 0.46 0.46 0.0 0 0 822.01 572.76
  L 822.00 602.28
  Q 822.00 604.54 822.75 602.41
  Q 825.16 595.64 830.92 590.23
  C 840.76 581.00 855.42 579.99 867.05 586.77
  Q 879.80 594.21 881.94 608.96"
/>
<path stroke="#9c9b98" vector-effect="non-scaling-stroke" d="
  M 856.3095 632.7148
  A 19.32 18.99 73.4 0 0 868.9885 608.7748
  A 19.32 18.99 73.4 0 0 845.2705 595.6852
  A 19.32 18.99 73.4 0 0 832.5915 619.6252
  A 19.32 18.99 73.4 0 0 856.3095 632.7148"
/>
<path stroke="#9a433d" vector-effect="non-scaling-stroke" d="
  M 208.14 657.62
  C 212.85 658.21 217.59 660.30 221.62 662.89
  A 1.28 1.27 38.9 0 0 223.20 662.73
  Q 250.49 636.18 277.23 606.86
  Q 277.83 606.21 276.95 606.21
  Q 221.29 606.41 165.33 606.23
  Q 160.74 606.21 157.85 607.10
  C 152.83 608.63 147.64 613.70 145.84 618.56
  Q 144.56 622.00 144.54 627.31
  Q 144.48 642.44 144.55 656.06
  Q 144.55 656.98 145.47 656.95
  C 154.74 656.68 163.76 657.06 173.02 656.74
  C 184.69 656.34 196.82 656.19 208.14 657.62"
/>
<path stroke="#9a433d" vector-effect="non-scaling-stroke" d="
  M 323.27 616.49
  Q 324.46 616.13 324.87 617.30
  Q 325.23 618.32 325.88 619.16
  Q 328.00 621.88 326.79 618.65
  C 326.24 617.20 324.54 616.67 324.17 615.07
  Q 324.01 614.36 323.45 614.83
  Q 321.88 616.16 321.30 618.02
  Q 320.77 619.71 319.22 620.82
  Q 313.03 625.30 306.52 631.04
  A 1.57 1.57 0.0 0 0 306.25 633.08
  L 310.62 639.73
  A 0.89 0.88 50.6 0 1 310.52 640.82
  L 296.32 655.66
  A 0.42 0.41 -67.8 0 0 296.61 656.36
  L 327.26 656.74
  A 0.75 0.75 0.0 0 0 328.02 655.99
  L 328.03 622.52
  A 1.19 1.19 0.0 0 0 327.15 621.37
  Q 324.42 620.64 322.61 617.72
  Q 322.27 617.18 322.76 616.77
  Q 322.99 616.58 323.27 616.49"
/>
<path stroke="#9c9b98" vector-effect="non-scaling-stroke" d="
  M 378.42 621.92
  A 0.77 0.77 0.0 0 0 377.67 621.01
  L 341.07 620.84
  A 0.77 0.77 0.0 0 0 340.30 621.61
  L 339.95 699.68
  A 0.77 0.77 0.0 0 0 340.72 700.45
  L 362.67 700.47
  A 0.77 0.77 0.0 0 0 363.43 699.84
  L 378.42 621.92"
/>
<path stroke="#9c9b98" vector-effect="non-scaling-stroke" d="
  M 392.10 620.91
  A 0.35 0.35 0.0 0 0 391.76 621.20
  L 376.89 699.85
  A 0.35 0.35 0.0 0 0 377.23 700.27
  L 483.29 700.24
  A 0.35 0.35 0.0 0 0 483.64 699.84
  L 471.20 621.29
  A 0.35 0.35 0.0 0 0 470.85 621.00
  L 392.10 620.91"
/>
<path stroke="#9c9b98" vector-effect="non-scaling-stroke" d="
  M 497.65 700.12
  Q 512.14 699.92 528.25 699.99
  Q 534.04 700.01 537.54 701.11
  Q 549.09 704.74 552.46 715.97
  Q 553.85 720.61 553.59 729.40
  Q 553.38 736.13 553.45 743.37
  A 0.79 0.79 0.0 0 0 554.25 744.15
  L 578.73 743.94
  A 0.58 0.58 0.0 0 0 579.20 743.02
  Q 577.78 741.01 576.47 739.02
  C 572.72 733.29 572.18 727.21 572.14 720.22
  Q 571.91 669.78 572.03 622.29
  A 0.77 0.76 0.4 0 0 571.26 621.52
  L 485.24 621.18
  Q 483.95 621.18 484.16 622.45
  Q 489.13 652.69 495.16 686.23
  Q 496.42 693.19 497.31 699.83
  A 0.33 0.33 0.0 0 0 497.65 700.12"
/>
<path stroke="#9c9b98" vector-effect="non-scaling-stroke" d="
  M 223.85 680.19
  A 1.69 1.69 0.0 0 1 221.69 680.11
  Q 217.40 676.25 213.32 672.96
  C 206.87 667.77 197.67 670.07 194.18 677.29
  Q 191.66 682.47 195.45 686.14
  Q 203.33 693.79 213.73 704.54
  C 218.37 709.33 222.81 713.08 228.67 706.67
  Q 234.64 700.14 240.83 693.83
  Q 268.20 665.92 294.99 639.46
  A 0.90 0.89 44.8 0 0 294.98 638.18
  L 280.63 624.26
  A 0.53 0.53 0.0 0 0 279.89 624.26
  C 261.43 642.31 243.94 660.34 225.26 679.22
  C 224.92 679.57 224.26 679.87 223.85 680.19"
/>
<path stroke="#6b889a" vector-effect="non-scaling-stroke" d="
  M 164.96 669.76
  L 144.86 669.74
  A 0.37 0.37 0.0 0 0 144.49 670.11
  Q 144.55 693.83 144.45 719.26
  Q 144.39 735.40 159.31 741.93
  Q 162.36 743.26 165.14 743.68"
/>
<path stroke="#548099" vector-effect="non-scaling-stroke" d="
  M 165.14 743.68
  L 303.40 743.69
  Q 304.03 743.69 304.05 743.06
  Q 304.24 734.58 304.23 725.62
  C 304.22 712.35 313.94 700.85 327.15 699.94
  Q 327.74 699.90 327.76 699.31
  C 328.15 688.69 327.52 678.69 327.83 668.66
  A 0.34 0.33 -89.2 0 0 327.50 668.31
  Q 306.96 668.18 286.70 668.07
  Q 284.78 668.06 283.36 669.48
  Q 259.92 692.88 236.05 717.09
  Q 229.42 723.82 220.06 722.91
  C 213.96 722.31 209.83 718.52 205.50 714.22
  Q 195.89 704.68 186.78 695.18
  Q 183.25 691.50 182.07 688.92
  C 180.61 685.72 181.38 681.88 181.09 678.43
  C 180.81 675.08 182.84 672.83 184.93 670.58
  Q 185.62 669.83 184.60 669.83
  L 164.96 669.76"
/>
<path stroke="#83d0fc" vector-effect="non-scaling-stroke" d="
  M 165.14 743.68
  Q 163.95 711.44 164.33 679.09
  C 164.37 676.05 164.76 672.90 164.96 669.76"
/>
<path stroke="#9c9b98" vector-effect="non-scaling-stroke" d="
  M 318.46 718.96
  Q 317.60 720.66 317.51 722.67
  Q 317.12 732.35 317.28 742.71
  A 1.04 1.03 89.2 0 0 318.32 743.73
  Q 427.13 743.32 536.32 743.48
  C 537.50 743.48 538.64 743.63 539.80 743.77
  Q 540.43 743.84 540.45 743.21
  Q 540.98 726.01 540.21 721.14
  C 538.98 713.28 533.34 712.93 526.61 712.92
  Q 428.67 712.76 332.68 712.92
  C 326.70 712.93 321.54 712.87 318.46 718.96"
/>
<path stroke="#548099" vector-effect="non-scaling-stroke" d="
  M 744.2296 309.2288
  A 6.16 5.98 50.0 0 0 744.8509 300.6661
  A 6.16 5.98 50.0 0 0 736.3104 299.7912
  A 6.16 5.98 50.0 0 0 735.6891 308.3539
  A 6.16 5.98 50.0 0 0 744.2296 309.2288"
/>
<path stroke="#548099" vector-effect="non-scaling-stroke" d="
  M 378.98 421.47
  Q 379.34 409.00 379.23 396.50
  C 379.07 379.11 367.03 364.12 349.25 363.77
  C 340.69 363.61 332.74 367.49 327.18 373.50
  Q 317.96 383.46 318.07 397.91
  Q 318.34 433.13 318.24 470.73
  Q 318.21 482.50 324.92 491.82
  C 334.24 504.76 351.77 509.84 365.83 503.03
  C 370.93 500.57 376.65 495.75 380.43 491.73
  Q 409.13 461.21 437.04 433.24
  A 0.87 0.86 -44.3 0 1 438.28 433.25
  Q 458.60 454.51 480.13 476.10
  C 487.86 483.85 495.19 492.46 504.05 498.86
  C 513.74 505.85 527.47 507.30 538.22 501.14
  Q 555.49 491.24 556.86 471.42
  Q 557.19 466.65 557.18 462.44
  Q 557.08 429.70 557.31 398.95
  C 557.39 388.66 555.45 381.01 548.48 373.63
  C 535.84 360.26 516.70 360.66 504.07 373.81
  C 497.63 380.52 495.87 388.84 495.75 397.91
  Q 495.61 409.07 495.97 421.06
  Q 495.99 421.86 495.42 421.30
  Q 478.44 404.35 461.71 386.72
  C 457.06 381.81 450.97 376.24 444.35 374.63
  C 430.41 371.26 420.20 376.44 411.22 386.47
  Q 394.17 405.52 379.61 421.72
  Q 378.95 422.45 378.98 421.47"
/>
<path stroke="#52556a" vector-effect="non-scaling-stroke" d="
  M 373.00 445.20
  C 371.46 445.36 370.00 444.41 368.73 443.64
  Q 366.40 442.22 366.35 439.43
  Q 366.02 418.99 366.37 397.33
  Q 366.47 390.99 364.93 387.26
  C 360.08 375.49 344.72 373.76 335.99 382.43
  Q 331.01 387.37 330.96 394.92
  Q 330.68 436.06 330.70 472.50
  C 330.72 487.83 347.93 498.20 361.42 490.94
  Q 367.20 487.83 371.69 482.91
  Q 402.77 448.84 432.79 418.83
  Q 434.51 417.10 436.62 415.77
  Q 437.68 415.10 438.75 415.75
  Q 440.19 416.63 441.40 417.85
  Q 470.96 447.82 498.95 477.50
  C 505.16 484.09 511.51 490.88 520.88 492.15
  Q 529.35 493.30 536.32 487.17
  Q 543.11 481.19 544.11 474.65
  Q 544.75 470.44 544.65 460.58
  Q 544.29 426.46 544.47 396.83
  Q 544.52 389.55 541.01 384.28
  C 536.84 378.01 528.21 374.97 521.20 377.50
  Q 508.73 382.01 508.52 395.21
  Q 508.26 411.24 508.46 439.26
  C 508.50 444.83 504.40 447.27 500.01 443.31
  Q 493.58 437.48 486.75 430.53
  Q 469.98 413.45 451.29 394.32
  C 445.82 388.72 440.18 385.50 431.85 387.06
  C 427.84 387.81 424.83 391.05 422.19 393.94
  Q 400.22 417.98 374.82 444.30
  A 3.00 2.98 -71.1 0 1 373.00 445.20"
/>
<path stroke="#548099" vector-effect="non-scaling-stroke" d="
  M 729.90 421.68
  A 6.46 6.46 0.0 0 0 723.44 415.22
  L 677.76 415.22
  A 6.46 6.46 0.0 0 0 671.30 421.68
  L 671.30 422.02
  A 6.46 6.46 0.0 0 0 677.76 428.48
  L 723.44 428.48
  A 6.46 6.46 0.0 0 0 729.90 422.02
  L 729.90 421.68"
/>
<path stroke="#548099" vector-effect="non-scaling-stroke" d="
  M 670.08 609.92
  A 0.54 0.54 0.0 0 1 669.40 609.84
  Q 665.08 605.31 660.51 601.49
  C 652.48 594.77 642.69 592.37 633.34 598.42
  Q 621.54 606.05 621.50 619.68
  C 621.48 625.02 623.31 630.29 626.83 634.17
  Q 637.67 646.14 652.36 660.15
  C 657.15 664.72 661.38 667.76 667.38 668.34
  Q 679.86 669.55 688.29 660.84
  Q 717.53 630.64 746.47 601.74
  Q 748.40 599.81 750.42 598.09
  A 2.68 2.66 -61.5 0 1 752.46 597.48
  Q 761.89 598.59 769.19 595.37
  C 777.44 591.73 783.38 583.78 784.74 575.07
  Q 787.59 556.82 772.51 545.19
  C 763.34 538.12 749.95 536.83 740.00 542.51
  Q 735.06 545.34 728.03 552.79
  Q 719.45 561.88 710.78 570.32
  Q 691.80 588.78 673.37 607.32
  Q 671.91 608.79 670.08 609.92"
/>
<path stroke="#548099" vector-effect="non-scaling-stroke" d="
  M 683.6832 736.3567
  A 25.89 25.51 122.7 0 0 719.1369 728.3515
  A 25.89 25.51 122.7 0 0 711.6568 692.7833
  A 25.89 25.51 122.7 0 0 676.2031 700.7885
  A 25.89 25.51 122.7 0 0 683.6832 736.3567"
/>
<path stroke="#548099" vector-effect="non-scaling-stroke" d="
  M 858.2981 464.8720
  A 4.31 4.31 0.0 0 0 854.2433 460.3210
  L 850.6693 460.1149
  A 4.31 4.31 0.0 0 0 846.1183 464.1697
  L 846.0619 465.1480
  A 4.31 4.31 0.0 0 0 850.1167 469.6990
  L 853.6907 469.9051
  A 4.31 4.31 0.0 0 0 858.2417 465.8503
  L 858.2981 464.8720"
/>
<path stroke="#9c9b98" vector-effect="non-scaling-stroke" d="
  M 746.97 583.54
  A 3.34 3.34 0.0 0 1 749.73 582.86
  C 756.06 584.14 763.09 586.07 768.17 580.95
  C 772.24 576.85 773.81 570.79 771.84 565.26
  C 768.84 556.81 761.04 551.38 751.98 552.30
  C 745.87 552.93 742.17 556.87 738.20 560.89
  Q 702.41 597.09 672.82 625.16
  Q 670.15 627.69 667.65 625.15
  Q 660.71 618.13 652.79 611.32
  C 648.02 607.21 640.56 606.51 636.35 611.84
  C 632.74 616.40 633.94 623.30 637.73 627.25
  Q 646.08 635.96 662.55 651.51
  C 667.44 656.13 674.13 657.00 678.98 651.98
  Q 708.80 621.09 739.27 590.52
  Q 743.00 586.78 746.97 583.54"
/>
<path stroke="#9a433d" vector-effect="non-scaling-stroke" d="
  M 864.9160 685.9416
  A 6.46 6.46 0.0 0 0 858.4673 679.4704
  L 858.1073 679.4697
  A 6.46 6.46 0.0 0 0 851.6361 685.9184
  L 851.5640 727.2184
  A 6.46 6.46 0.0 0 0 858.0127 733.6896
  L 858.3727 733.6903
  A 6.46 6.46 0.0 0 0 864.8439 727.2416
  L 864.9160 685.9416"
/>
<path stroke="#9a433d" vector-effect="non-scaling-stroke" d="
  M 843.03 686.32
  A 6.54 6.54 0.0 0 0 836.49 679.78
  L 836.11 679.78
  A 6.54 6.54 0.0 0 0 829.57 686.32
  L 829.57 727.40
  A 6.54 6.54 0.0 0 0 836.11 733.94
  L 836.49 733.94
  A 6.54 6.54 0.0 0 0 843.03 727.40
  L 843.03 686.32"
/>
<path stroke="#9c9b98" vector-effect="non-scaling-stroke" d="
  M 855.2921 622.2615
  A 9.08 8.83 61.0 0 0 858.6129 610.0391
  A 9.08 8.83 61.0 0 0 846.4879 606.3785
  A 9.08 8.83 61.0 0 0 843.1671 618.6009
  A 9.08 8.83 61.0 0 0 855.2921 622.2615"
/>
<path stroke="#548099" vector-effect="non-scaling-stroke" d="
  M 710.57 714.69
  A 12.91 12.91 0.0 0 0 697.66 701.78
  A 12.91 12.91 0.0 0 0 684.75 714.69
  A 12.91 12.91 0.0 0 0 697.66 727.60
  A 12.91 12.91 0.0 0 0 710.57 714.69"
/>
<path stroke="#9c9b98" vector-effect="non-scaling-stroke" d="
  M 451.33 941.21
  L 451.19 960.75
  A 0.61 0.61 0.0 0 0 451.80 961.36
  L 464.15 961.45
  A 9.98 9.18 0.4 0 0 474.19 952.34
  L 474.21 949.94
  A 9.98 9.18 0.4 0 0 464.29 940.69
  L 451.94 940.60
  A 0.61 0.61 0.0 0 0 451.33 941.21"
/>
<path stroke="#9c9b98" vector-effect="non-scaling-stroke" d="
  M 668.72 940.95
  L 668.86 960.59
  A 0.33 0.33 0.0 0 0 669.19 960.92
  L 682.47 960.83
  A 10.07 9.28 -0.4 0 0 692.48 951.48
  L 692.46 949.74
  A 10.07 9.28 -0.4 0 0 682.33 940.53
  L 669.05 940.62
  A 0.33 0.33 0.0 0 0 668.72 940.95"
/>
<path stroke="#9c9b98" vector-effect="non-scaling-stroke" d="
  M 547.73 941.38
  L 547.73 961.36
  A 0.87 0.87 0.0 0 0 548.60 962.23
  L 562.30 962.23
  A 9.99 9.54 0.0 0 0 572.29 952.69
  L 572.29 950.05
  A 9.99 9.54 -0.0 0 0 562.30 940.51
  L 548.60 940.51
  A 0.87 0.87 0.0 0 0 547.73 941.38"
/>
<path stroke="#9c9b98" vector-effect="non-scaling-stroke" d="
  M 597.67 969.67
  A 0.50 0.50 0.0 0 0 598.15 970.35
  L 615.94 969.65
  A 0.50 0.50 0.0 0 0 616.39 968.97
  L 607.65 945.77
  A 0.50 0.50 0.0 0 0 606.71 945.77
  L 597.67 969.67"
/>
</g>
<path fill="#fcfdf8" d="
  M 0.00 0.00
  L 1024.00 0.00
  L 1024.00 1024.00
  L 0.00 1024.00
  L 0.00 0.00
  Z
  M 458.61 239.85
  Q 462.69 239.85 466.93 240.22
  C 470.74 240.55 474.53 240.47 478.23 240.57
  Q 480.79 240.64 483.38 240.09
  Q 486.83 239.36 490.55 239.88
  Q 491.03 239.94 491.36 240.29
  Q 494.10 243.21 499.09 242.78
  Q 501.43 242.58 504.25 240.38
  Q 511.07 235.09 517.83 230.30
  Q 519.50 229.12 520.87 227.19
  Q 521.18 226.76 520.94 226.29
  C 517.48 219.45 523.52 215.39 525.80 209.67
  C 527.47 205.48 528.81 200.19 533.33 198.24
  Q 533.84 198.02 533.90 197.46
  Q 534.63 190.38 534.73 182.68
  C 534.76 180.27 534.40 177.76 532.53 176.03
  Q 529.89 173.58 528.91 170.50
  Q 526.57 163.20 524.04 156.13
  Q 522.95 153.11 524.05 150.00
  C 524.55 148.59 523.89 147.27 522.95 146.27
  Q 519.52 142.58 515.62 138.81
  Q 513.75 137.01 511.72 136.95
  Q 505.11 136.78 500.19 134.17
  Q 497.41 132.70 494.31 131.59
  C 491.41 130.56 489.37 127.83 487.58 125.31
  C 486.31 123.52 483.99 123.30 482.00 123.27
  Q 474.59 123.17 466.78 123.24
  C 461.98 123.29 462.48 128.32 458.97 129.83
  Q 453.56 132.17 447.67 134.55
  C 444.45 135.85 441.30 136.15 437.97 136.59
  Q 436.93 136.73 436.02 137.43
  C 432.47 140.18 424.45 146.55 425.49 151.34
  C 426.86 157.63 422.80 161.09 421.94 166.82
  Q 421.62 168.95 420.56 171.31
  C 419.03 174.70 415.86 176.42 415.51 180.34
  Q 414.93 186.87 415.65 195.18
  C 416.03 199.60 419.77 198.96 421.50 202.24
  Q 424.35 207.63 426.05 212.95
  Q 426.62 214.73 428.19 216.29
  C 430.33 218.40 429.84 221.48 429.05 224.04
  C 428.20 226.79 430.42 229.86 432.56 231.33
  C 436.59 234.12 441.51 236.50 445.17 239.76
  C 448.69 242.89 453.86 244.09 457.37 240.39
  Q 457.88 239.85 458.61 239.85
  Z
  M 718.6150 170.5273
  A 5.89 5.89 0.0 0 0 712.7456 164.6168
  L 668.8458 164.4635
  A 5.89 5.89 0.0 0 0 662.9353 170.3330
  L 662.7850 213.3927
  A 5.89 5.89 0.0 0 0 668.6544 219.3032
  L 712.5542 219.4565
  A 5.89 5.89 0.0 0 0 718.4647 213.5870
  L 718.6150 170.5273
  Z
  M 218.17 314.15
  C 218.22 303.79 221.75 294.36 232.51 291.28
  Q 235.53 290.42 247.18 290.45
  Q 294.35 290.54 342.36 290.53
  C 350.15 290.53 350.05 277.45 341.19 277.45
  Q 290.97 277.49 236.56 277.42
  C 221.86 277.40 210.52 286.87 206.19 300.97
  Q 204.57 306.23 204.65 318.98
  Q 204.88 356.25 204.59 395.62
  Q 204.58 397.01 204.87 398.36
  Q 205.95 403.35 210.89 403.51
  C 218.66 403.77 218.07 398.49 218.06 392.19
  Q 217.99 353.32 218.17 314.15
  Z
  M 606.95 392.16
  L 607.04 316.19
  A 1.36 1.36 0.0 0 0 605.68 314.83
  L 243.22 314.69
  A 0.72 0.71 90.0 0 0 242.51 315.41
  L 242.69 537.05
  Q 239.91 541.89 241.97 546.55
  C 243.18 549.30 245.88 549.66 248.52 549.66
  Q 410.06 549.63 571.35 549.60
  A 0.90 0.90 0.0 0 1 572.25 550.50
  L 572.21 608.01
  A 0.80 0.80 0.0 0 1 571.35 608.81
  Q 564.76 608.36 558.25 608.36
  Q 445.29 608.37 331.20 608.20
  A 2.31 2.28 -12.6 0 1 329.15 606.92
  C 327.13 602.79 321.39 596.35 316.30 599.55
  Q 313.54 601.28 311.50 604.91
  Q 302.72 603.66 298.84 610.28
  Q 298.55 610.78 298.64 611.35
  Q 298.80 612.32 298.20 613.03
  A 0.42 0.41 58.0 0 1 297.48 612.86
  Q 296.34 608.38 292.64 605.81
  Q 295.27 602.55 297.40 599.21
  C 300.92 593.67 296.86 585.86 289.89 588.92
  C 288.03 589.73 286.78 591.46 285.47 592.99
  Q 285.12 593.39 284.60 593.48
  Q 283.31 593.70 282.08 593.71
  Q 250.93 593.79 218.82 593.78
  A 0.87 0.86 -0.0 0 1 217.95 592.92
  Q 218.16 506.99 217.99 426.88
  C 217.99 424.30 218.30 420.07 215.16 419.09
  Q 210.42 417.61 205.77 420.74
  Q 204.76 421.43 204.76 422.66
  Q 204.63 508.64 204.70 592.84
  A 1.15 1.15 0.0 0 1 203.55 593.99
  Q 183.22 594.04 163.00 593.89
  C 149.11 593.78 137.33 603.07 133.10 616.03
  Q 131.63 620.51 131.66 630.15
  Q 131.76 671.98 131.56 713.74
  Q 131.53 719.00 131.93 723.82
  Q 132.72 733.56 139.65 740.99
  C 140.61 742.02 141.64 742.90 142.64 743.87
  Q 143.29 744.50 142.39 744.51
  Q 135.66 744.62 127.86 744.68
  C 123.82 744.71 119.40 745.69 119.50 750.59
  C 119.65 757.26 124.10 756.96 129.68 756.95
  Q 304.86 756.90 470.50 757.04
  C 505.65 757.07 540.80 756.80 576.01 756.97
  Q 586.42 757.03 596.00 757.02
  Q 747.31 756.96 898.62 757.22
  Q 899.26 757.22 899.89 757.25
  C 906.00 757.56 907.40 747.14 902.20 745.49
  C 897.81 744.10 891.48 744.84 886.75 744.80
  A 0.36 0.35 25.9 0 1 886.53 744.17
  Q 896.53 735.96 896.58 721.95
  Q 896.78 656.69 896.71 589.61
  C 896.70 576.58 887.77 565.27 875.79 561.37
  Q 871.13 559.86 863.66 559.93
  Q 843.94 560.14 822.94 559.87
  Q 821.88 559.85 821.87 558.79
  Q 821.74 496.74 821.78 423.46
  Q 821.78 418.12 820.44 413.83
  C 817.34 403.94 808.89 395.34 798.71 393.08
  Q 794.34 392.11 789.16 392.12
  Q 717.61 392.35 645.49 392.27
  Q 644.71 392.27 644.71 391.48
  Q 644.68 355.19 644.62 315.10
  Q 644.60 305.44 643.17 300.90
  Q 638.23 285.32 622.94 279.28
  Q 618.65 277.58 614.72 277.53
  C 584.49 277.15 553.89 277.53 523.25 277.39
  Q 455.39 277.08 390.00 277.42
  Q 381.81 277.46 374.25 277.25
  Q 370.72 277.16 368.39 278.34
  C 364.42 280.35 363.98 287.76 368.22 289.69
  Q 370.17 290.58 373.65 290.58
  Q 488.06 290.47 609.10 290.50
  C 617.20 290.50 624.16 292.81 628.36 300.11
  Q 631.51 305.61 631.51 312.89
  Q 631.49 353.91 631.50 391.62
  A 0.63 0.62 -89.6 0 1 630.87 392.25
  L 606.95 392.16
  Z
  M 752.9806 317.7900
  A 18.35 18.10 44.8 0 0 752.7139 292.0168
  A 18.35 18.10 44.8 0 0 726.9394 291.9300
  A 18.35 18.10 44.8 0 0 727.2061 317.7032
  A 18.35 18.10 44.8 0 0 752.9806 317.7900
  Z
  M 869.9305 453.4903
  A 5.05 5.05 0.0 0 0 864.8894 448.4315
  L 840.2894 448.3886
  A 5.05 5.05 0.0 0 0 835.2306 453.4297
  L 835.1895 476.9897
  A 5.05 5.05 0.0 0 0 840.2306 482.0485
  L 864.8306 482.0914
  A 5.05 5.05 0.0 0 0 869.8894 477.0503
  L 869.9305 453.4903
  Z
  M 144.80 513.90
  A 0.62 0.62 0.0 0 0 144.18 513.28
  L 113.10 513.28
  A 0.62 0.62 0.0 0 0 112.48 513.90
  L 112.48 535.78
  A 0.62 0.62 0.0 0 0 113.10 536.40
  L 144.18 536.40
  A 0.62 0.62 0.0 0 0 144.80 535.78
  L 144.80 513.90
  Z
  M 445.9357 575.2568
  A 14.59 14.09 -9.6 0 0 429.2002 563.7973
  A 14.59 14.09 -9.6 0 0 417.1643 580.1232
  A 14.59 14.09 -9.6 0 0 433.8998 591.5827
  A 14.59 14.09 -9.6 0 0 445.9357 575.2568
  Z
  M 392.91 967.97
  C 398.37 970.04 402.46 974.54 399.73 980.73
  C 397.36 986.09 391.43 987.39 386.02 986.68
  Q 376.89 985.48 375.71 975.11
  Q 375.61 974.26 374.75 974.26
  L 368.56 974.26
  A 0.87 0.87 0.0 0 0 367.70 975.26
  C 369.97 990.37 384.44 995.30 397.76 991.19
  C 404.08 989.24 407.92 984.00 407.90 977.30
  C 407.86 963.94 394.32 960.99 384.44 957.52
  C 379.56 955.81 375.55 951.42 377.18 946.00
  Q 378.36 942.06 382.42 940.75
  C 389.64 938.41 398.27 939.85 399.90 948.47
  Q 400.02 949.12 400.68 949.22
  L 406.56 950.11
  Q 407.26 950.21 407.31 949.51
  Q 407.80 943.50 403.46 939.29
  C 396.77 932.78 385.81 932.01 377.65 935.63
  C 370.77 938.67 367.79 946.03 369.93 953.12
  C 372.52 961.71 385.58 965.19 392.91 967.97
  Z
  M 470.81 966.49
  C 475.79 964.60 480.04 961.44 481.23 956.24
  C 484.26 942.95 477.02 934.55 464.12 934.10
  Q 454.01 933.75 443.93 933.78
  A 0.42 0.42 0.0 0 0 443.52 934.20
  L 443.41 990.95
  Q 443.41 991.56 444.01 991.56
  L 450.72 991.51
  Q 451.20 991.51 451.20 991.03
  L 451.25 968.26
  A 0.66 0.66 0.0 0 1 451.89 967.60
  Q 456.00 967.48 459.94 967.82
  Q 462.65 968.05 464.31 970.49
  Q 469.56 978.24 474.99 987.48
  Q 476.04 989.28 477.28 990.86
  Q 477.99 991.77 479.15 991.76
  L 483.97 991.74
  Q 485.01 991.73 484.53 990.81
  Q 480.25 982.61 475.24 973.77
  C 473.94 971.49 472.30 969.49 470.56 967.51
  Q 469.95 966.82 470.81 966.49
  Z
  M 648.1201 934.3631
  A 0.26 0.26 0.0 0 0 647.8597 934.1036
  L 640.4197 934.1165
  A 0.26 0.26 0.0 0 0 640.1601 934.3770
  L 640.2599 991.5169
  A 0.26 0.26 0.0 0 0 640.5203 991.7764
  L 647.9603 991.7635
  A 0.26 0.26 0.0 0 0 648.2199 991.5030
  L 648.1201 934.3631
  Z
  M 668.89 967.43
  A 0.42 0.42 0.0 0 1 669.32 967.01
  L 678.96 967.25
  A 3.47 3.45 73.9 0 1 681.77 968.81
  Q 689.39 980.42 695.93 991.45
  Q 695.95 991.49 696.00 991.51
  Q 696.87 991.87 703.99 991.58
  A 0.15 0.15 0.0 0 0 704.11 991.36
  L 688.98 966.04
  Q 688.63 965.45 689.26 965.18
  C 694.68 962.87 699.53 959.83 700.06 953.26
  Q 701.07 940.83 691.35 936.12
  Q 686.96 934.00 678.35 934.03
  Q 669.64 934.06 661.74 933.94
  Q 661.45 933.93 661.45 934.22
  L 661.56 991.27
  A 0.47 0.46 90.0 0 0 662.02 991.74
  L 668.51 991.76
  Q 669.03 991.76 669.03 991.24
  L 668.89 967.43
  Z
  M 356.0490 934.5866
  A 0.35 0.35 0.0 0 0 355.6996 934.2360
  L 348.8596 934.2241
  A 0.35 0.35 0.0 0 0 348.5090 934.5735
  L 348.4110 990.7534
  A 0.35 0.35 0.0 0 0 348.7604 991.1040
  L 355.6004 991.1159
  A 0.35 0.35 0.0 0 0 355.9510 990.7665
  L 356.0490 934.5866
  Z
  M 501.48 965.20
  A 0.66 0.66 0.0 0 1 502.15 964.54
  L 525.61 964.71
  A 0.66 0.66 0.0 0 0 526.27 964.03
  L 526.06 959.10
  A 0.66 0.66 0.0 0 0 525.40 958.47
  L 502.35 958.23
  A 0.66 0.66 0.0 0 1 501.69 957.57
  L 501.51 941.30
  A 0.66 0.66 0.0 0 1 502.17 940.63
  L 529.43 940.74
  A 0.66 0.66 0.0 0 0 530.10 940.07
  L 530.07 934.89
  A 0.66 0.66 0.0 0 0 529.41 934.23
  L 494.95 934.31
  A 0.66 0.66 0.0 0 0 494.29 934.97
  L 494.28 990.96
  A 0.66 0.66 0.0 0 0 494.93 991.62
  L 529.84 991.98
  A 0.66 0.66 0.0 0 0 530.51 991.32
  L 530.52 986.24
  A 0.66 0.66 0.0 0 0 529.86 985.58
  L 502.21 985.45
  A 0.66 0.66 0.0 0 1 501.56 984.80
  L 501.48 965.20
  Z
  M 548.45 968.42
  Q 555.51 968.56 562.51 968.45
  C 572.49 968.28 579.64 962.80 579.75 952.13
  Q 579.86 940.08 570.15 935.82
  Q 565.87 933.95 557.62 934.11
  Q 548.43 934.29 541.02 934.24
  A 0.74 0.74 0.0 0 0 540.28 934.98
  L 540.05 990.76
  A 0.96 0.95 0.3 0 0 541.01 991.72
  L 546.78 991.74
  Q 547.55 991.74 547.55 990.97
  L 547.59 969.26
  Q 547.59 968.40 548.45 968.42
  Z
  M 594.83 977.10
  A 0.98 0.96 10.5 0 1 595.74 976.49
  L 617.96 976.47
  Q 618.95 976.47 619.32 977.39
  L 624.81 991.22
  Q 624.91 991.47 625.17 991.48
  L 632.76 991.79
  Q 632.96 991.79 632.88 991.61
  L 610.76 935.46
  A 1.93 1.92 79.3 0 0 608.97 934.23
  L 604.31 934.24
  A 0.71 0.71 0.0 0 0 603.67 934.67
  Q 601.52 939.84 599.69 944.72
  Q 591.26 967.25 581.08 991.87
  A 0.11 0.10 -77.0 0 0 581.17 992.02
  Q 584.69 992.13 588.58 992.15
  A 0.35 0.34 -78.5 0 0 588.90 991.93
  L 594.83 977.10
  Z
  M 433.9038 969.1048
  A 1.42 1.42 0.0 0 0 432.4789 967.6898
  L 415.1590 967.7502
  A 1.42 1.42 0.0 0 0 413.7440 969.1752
  L 413.7562 972.6752
  A 1.42 1.42 0.0 0 0 415.1811 974.0902
  L 432.5010 974.0298
  A 1.42 1.42 0.0 0 0 433.9160 972.6048
  L 433.9038 969.1048
  Z"
/>
<path fill="#3b3837" d="
  M 457.37 240.39
  C 453.86 244.09 448.69 242.89 445.17 239.76
  C 441.51 236.50 436.59 234.12 432.56 231.33
  C 430.42 229.86 428.20 226.79 429.05 224.04
  C 429.84 221.48 430.33 218.40 428.19 216.29
  Q 426.62 214.73 426.05 212.95
  Q 424.35 207.63 421.50 202.24
  C 419.77 198.96 416.03 199.60 415.65 195.18
  Q 414.93 186.87 415.51 180.34
  C 415.86 176.42 419.03 174.70 420.56 171.31
  Q 421.62 168.95 421.94 166.82
  C 422.80 161.09 426.86 157.63 425.49 151.34
  C 424.45 146.55 432.47 140.18 436.02 137.43
  Q 436.93 136.73 437.97 136.59
  C 441.30 136.15 444.45 135.85 447.67 134.55
  Q 453.56 132.17 458.97 129.83
  C 462.48 128.32 461.98 123.29 466.78 123.24
  Q 474.59 123.17 482.00 123.27
  C 483.99 123.30 486.31 123.52 487.58 125.31
  C 489.37 127.83 491.41 130.56 494.31 131.59
  Q 497.41 132.70 500.19 134.17
  Q 505.11 136.78 511.72 136.95
  Q 513.75 137.01 515.62 138.81
  Q 519.52 142.58 522.95 146.27
  C 523.89 147.27 524.55 148.59 524.05 150.00
  Q 522.95 153.11 524.04 156.13
  Q 526.57 163.20 528.91 170.50
  Q 529.89 173.58 532.53 176.03
  C 534.40 177.76 534.76 180.27 534.73 182.68
  Q 534.63 190.38 533.90 197.46
  Q 533.84 198.02 533.33 198.24
  C 528.81 200.19 527.47 205.48 525.80 209.67
  C 523.52 215.39 517.48 219.45 520.94 226.29
  Q 521.18 226.76 520.87 227.19
  Q 519.50 229.12 517.83 230.30
  Q 511.07 235.09 504.25 240.38
  Q 501.43 242.58 499.09 242.78
  Q 494.10 243.21 491.36 240.29
  Q 491.03 239.94 490.55 239.88
  Q 486.83 239.36 483.38 240.09
  Q 480.79 240.64 478.23 240.57
  C 474.53 240.47 470.74 240.55 466.93 240.22
  Q 462.69 239.85 458.61 239.85
  Q 457.88 239.85 457.37 240.39
  Z
  M 505.65 205.95
  C 523.74 178.00 501.88 143.43 468.95 147.62
  C 456.22 149.23 445.26 158.75 440.51 170.84
  C 435.03 184.77 438.32 199.37 448.00 210.60
  Q 456.73 220.72 469.89 222.17
  C 484.16 223.73 497.73 218.20 505.65 205.95
  Z"
/>
<path fill="#fcfdf8" d="
  M 468.95 147.62
  C 501.88 143.43 523.74 178.00 505.65 205.95
  C 497.73 218.20 484.16 223.73 469.89 222.17
  Q 456.73 220.72 448.00 210.60
  C 438.32 199.37 435.03 184.77 440.51 170.84
  C 445.26 158.75 456.22 149.23 468.95 147.62
  Z
  M 494.4546 187.5630
  A 19.96 19.73 9.7 0 0 478.1043 164.7521
  A 19.96 19.73 9.7 0 0 455.1054 180.8370
  A 19.96 19.73 9.7 0 0 471.4557 203.6479
  A 19.96 19.73 9.7 0 0 494.4546 187.5630
  Z"
/>
<path fill="#3b3837" d="
  M 718.4647 213.5870
  A 5.89 5.89 0.0 0 1 712.5542 219.4565
  L 668.6544 219.3032
  A 5.89 5.89 0.0 0 1 662.7850 213.3927
  L 662.9353 170.3330
  A 5.89 5.89 0.0 0 1 668.8458 164.4635
  L 712.7456 164.6168
  A 5.89 5.89 0.0 0 1 718.6150 170.5273
  L 718.4647 213.5870
  Z
  M 706.3350 177.3173
  A 0.57 0.57 0.0 0 0 705.7660 176.7463
  L 675.6061 176.6937
  A 0.57 0.57 0.0 0 0 675.0351 177.2627
  L 674.9850 205.9627
  A 0.57 0.57 0.0 0 0 675.5540 206.5337
  L 705.7139 206.5863
  A 0.57 0.57 0.0 0 0 706.2849 206.0173
  L 706.3350 177.3173
  Z"
/>
<ellipse fill="#3b3837" cx="0.00" cy="0.00" transform="translate(474.78,184.20) rotate(9.7)" rx="19.96" ry="19.73"/>
<rect fill="#f94d43" x="-15.65" y="-14.92" transform="translate(690.66,191.64) rotate(0.1)" width="31.30" height="29.84" rx="0.57"/>
<path fill="#3b3837" d="
  M 232.51 291.28
  C 221.75 294.36 218.22 303.79 218.17 314.15
  Q 217.99 353.32 218.06 392.19
  C 218.07 398.49 218.66 403.77 210.89 403.51
  Q 205.95 403.35 204.87 398.36
  Q 204.58 397.01 204.59 395.62
  Q 204.88 356.25 204.65 318.98
  Q 204.57 306.23 206.19 300.97
  C 210.52 286.87 221.86 277.40 236.56 277.42
  Q 290.97 277.49 341.19 277.45
  C 350.05 277.45 350.15 290.53 342.36 290.53
  Q 294.35 290.54 247.18 290.45
  Q 235.53 290.42 232.51 291.28
  Z"
/>
<path fill="#3b3837" d="
  M 292.64 605.81
  L 287.51 612.21
  A 1.26 1.25 -48.9 0 0 287.62 613.90
  L 296.82 622.67
  A 0.53 0.53 0.0 0 0 297.60 622.61
  L 311.50 604.91
  Q 313.54 601.28 316.30 599.55
  C 321.39 596.35 327.13 602.79 329.15 606.92
  A 2.31 2.28 -12.6 0 0 331.20 608.20
  Q 445.29 608.37 558.25 608.36
  Q 564.76 608.36 571.35 608.81
  A 0.80 0.80 0.0 0 0 572.21 608.01
  L 572.25 550.50
  A 0.90 0.90 0.0 0 0 571.35 549.60
  Q 410.06 549.63 248.52 549.66
  C 245.88 549.66 243.18 549.30 241.97 546.55
  Q 239.91 541.89 242.69 537.05
  L 571.48 536.82
  Q 572.25 536.82 572.25 536.05
  Q 572.58 489.35 572.31 442.25
  Q 572.25 432.25 572.60 425.02
  Q 573.53 405.92 589.96 395.97
  Q 593.85 393.61 598.50 392.76
  Q 601.96 392.13 606.95 392.16
  L 630.87 392.25
  A 0.63 0.62 -89.6 0 0 631.50 391.62
  Q 631.49 353.91 631.51 312.89
  Q 631.51 305.61 628.36 300.11
  C 624.16 292.81 617.20 290.50 609.10 290.50
  Q 488.06 290.47 373.65 290.58
  Q 370.17 290.58 368.22 289.69
  C 363.98 287.76 364.42 280.35 368.39 278.34
  Q 370.72 277.16 374.25 277.25
  Q 381.81 277.46 390.00 277.42
  Q 455.39 277.08 523.25 277.39
  C 553.89 277.53 584.49 277.15 614.72 277.53
  Q 618.65 277.58 622.94 279.28
  Q 638.23 285.32 643.17 300.90
  Q 644.60 305.44 644.62 315.10
  Q 644.68 355.19 644.71 391.48
  Q 644.71 392.27 645.49 392.27
  Q 717.61 392.35 789.16 392.12
  Q 794.34 392.11 798.71 393.08
  C 808.89 395.34 817.34 403.94 820.44 413.83
  Q 821.78 418.12 821.78 423.46
  Q 821.74 496.74 821.87 558.79
  Q 821.88 559.85 822.94 559.87
  Q 843.94 560.14 863.66 559.93
  Q 871.13 559.86 875.79 561.37
  C 887.77 565.27 896.70 576.58 896.71 589.61
  Q 896.78 656.69 896.58 721.95
  Q 896.53 735.96 886.53 744.17
  A 0.36 0.35 25.9 0 0 886.75 744.80
  C 891.48 744.84 897.81 744.10 902.20 745.49
  C 907.40 747.14 906.00 757.56 899.89 757.25
  Q 899.26 757.22 898.62 757.22
  Q 747.31 756.96 596.00 757.02
  Q 586.42 757.03 576.01 756.97
  C 540.80 756.80 505.65 757.07 470.50 757.04
  Q 304.86 756.90 129.68 756.95
  C 124.10 756.96 119.65 757.26 119.50 750.59
  C 119.40 745.69 123.82 744.71 127.86 744.68
  Q 135.66 744.62 142.39 744.51
  Q 143.29 744.50 142.64 743.87
  C 141.64 742.90 140.61 742.02 139.65 740.99
  Q 132.72 733.56 131.93 723.82
  Q 131.53 719.00 131.56 713.74
  Q 131.76 671.98 131.66 630.15
  Q 131.63 620.51 133.10 616.03
  C 137.33 603.07 149.11 593.78 163.00 593.89
  Q 183.22 594.04 203.55 593.99
  A 1.15 1.15 0.0 0 0 204.70 592.84
  Q 204.63 508.64 204.76 422.66
  Q 204.76 421.43 205.77 420.74
  Q 210.42 417.61 215.16 419.09
  C 218.30 420.07 217.99 424.30 217.99 426.88
  Q 218.16 506.99 217.95 592.92
  A 0.87 0.86 -0.0 0 0 218.82 593.78
  Q 250.93 593.79 282.08 593.71
  Q 283.31 593.70 284.60 593.48
  Q 285.12 593.39 285.47 592.99
  C 286.78 591.46 288.03 589.73 289.89 588.92
  C 296.86 585.86 300.92 593.67 297.40 599.21
  Q 295.27 602.55 292.64 605.81
  Z
  M 608.79 744.07
  Q 646.20 744.06 683.00 743.83
  Q 694.86 743.76 708.49 743.80
  Q 747.72 743.92 785.99 743.80
  Q 797.20 743.77 803.92 735.66
  C 807.92 730.84 809.32 727.38 809.32 720.81
  Q 809.35 629.78 809.21 540.75
  C 809.15 501.41 809.62 462.79 809.43 428.99
  C 809.37 419.31 807.61 412.29 798.25 407.34
  C 794.44 405.32 789.48 405.25 785.00 405.27
  Q 736.22 405.41 611.89 405.25
  Q 604.84 405.12 602.00 405.78
  Q 589.61 408.67 585.99 420.06
  C 584.83 423.69 584.85 428.93 584.89 433.00
  Q 585.06 451.75 585.02 472.75
  Q 584.85 585.76 584.82 697.50
  Q 584.82 706.92 584.87 716.25
  Q 584.93 726.88 586.43 730.59
  Q 589.46 738.06 597.27 741.53
  Q 602.81 743.99 608.79 744.07
  Z
  M 881.94 608.96
  C 883.78 621.63 879.61 633.34 869.55 640.74
  Q 860.59 647.32 850.37 646.78
  Q 831.31 645.76 822.69 629.01
  Q 822.09 627.84 822.10 629.16
  C 822.28 649.91 822.17 670.55 822.50 691.25
  Q 822.77 707.74 822.38 725.01
  C 822.21 732.26 819.09 737.56 814.05 742.96
  A 0.66 0.66 0.0 0 0 814.53 744.07
  Q 837.28 743.94 859.86 743.72
  C 864.03 743.68 867.44 743.05 871.27 741.15
  Q 884.04 734.84 884.04 719.44
  Q 884.02 673.51 884.11 630.07
  Q 884.13 619.35 883.95 610.90
  Q 883.76 601.97 883.96 591.16
  Q 884.06 585.69 882.59 582.53
  C 879.30 575.47 871.12 572.30 863.25 572.26
  Q 842.64 572.18 822.47 572.30
  A 0.46 0.46 0.0 0 0 822.01 572.76
  L 822.00 602.28
  Q 822.00 604.54 822.75 602.41
  Q 825.16 595.64 830.92 590.23
  C 840.76 581.00 855.42 579.99 867.05 586.77
  Q 879.80 594.21 881.94 608.96
  Z
  M 856.3095 632.7148
  A 19.32 18.99 73.4 0 0 868.9885 608.7748
  A 19.32 18.99 73.4 0 0 845.2705 595.6852
  A 19.32 18.99 73.4 0 0 832.5915 619.6252
  A 19.32 18.99 73.4 0 0 856.3095 632.7148
  Z
  M 208.14 657.62
  C 212.85 658.21 217.59 660.30 221.62 662.89
  A 1.28 1.27 38.9 0 0 223.20 662.73
  Q 250.49 636.18 277.23 606.86
  Q 277.83 606.21 276.95 606.21
  Q 221.29 606.41 165.33 606.23
  Q 160.74 606.21 157.85 607.10
  C 152.83 608.63 147.64 613.70 145.84 618.56
  Q 144.56 622.00 144.54 627.31
  Q 144.48 642.44 144.55 656.06
  Q 144.55 656.98 145.47 656.95
  C 154.74 656.68 163.76 657.06 173.02 656.74
  C 184.69 656.34 196.82 656.19 208.14 657.62
  Z
  M 323.27 616.49
  Q 324.46 616.13 324.87 617.30
  Q 325.23 618.32 325.88 619.16
  Q 328.00 621.88 326.79 618.65
  C 326.24 617.20 324.54 616.67 324.17 615.07
  Q 324.01 614.36 323.45 614.83
  Q 321.88 616.16 321.30 618.02
  Q 320.77 619.71 319.22 620.82
  Q 313.03 625.30 306.52 631.04
  A 1.57 1.57 0.0 0 0 306.25 633.08
  L 310.62 639.73
  A 0.89 0.88 50.6 0 1 310.52 640.82
  L 296.32 655.66
  A 0.42 0.41 -67.8 0 0 296.61 656.36
  L 327.26 656.74
  A 0.75 0.75 0.0 0 0 328.02 655.99
  L 328.03 622.52
  A 1.19 1.19 0.0 0 0 327.15 621.37
  Q 324.42 620.64 322.61 617.72
  Q 322.27 617.18 322.76 616.77
  Q 322.99 616.58 323.27 616.49
  Z
  M 378.42 621.92
  A 0.77 0.77 0.0 0 0 377.67 621.01
  L 341.07 620.84
  A 0.77 0.77 0.0 0 0 340.30 621.61
  L 339.95 699.68
  A 0.77 0.77 0.0 0 0 340.72 700.45
  L 362.67 700.47
  A 0.77 0.77 0.0 0 0 363.43 699.84
  L 378.42 621.92
  Z
  M 392.10 620.91
  A 0.35 0.35 0.0 0 0 391.76 621.20
  L 376.89 699.85
  A 0.35 0.35 0.0 0 0 377.23 700.27
  L 483.29 700.24
  A 0.35 0.35 0.0 0 0 483.64 699.84
  L 471.20 621.29
  A 0.35 0.35 0.0 0 0 470.85 621.00
  L 392.10 620.91
  Z
  M 497.65 700.12
  Q 512.14 699.92 528.25 699.99
  Q 534.04 700.01 537.54 701.11
  Q 549.09 704.74 552.46 715.97
  Q 553.85 720.61 553.59 729.40
  Q 553.38 736.13 553.45 743.37
  A 0.79 0.79 0.0 0 0 554.25 744.15
  L 578.73 743.94
  A 0.58 0.58 0.0 0 0 579.20 743.02
  Q 577.78 741.01 576.47 739.02
  C 572.72 733.29 572.18 727.21 572.14 720.22
  Q 571.91 669.78 572.03 622.29
  A 0.77 0.76 0.4 0 0 571.26 621.52
  L 485.24 621.18
  Q 483.95 621.18 484.16 622.45
  Q 489.13 652.69 495.16 686.23
  Q 496.42 693.19 497.31 699.83
  A 0.33 0.33 0.0 0 0 497.65 700.12
  Z
  M 223.85 680.19
  A 1.69 1.69 0.0 0 1 221.69 680.11
  Q 217.40 676.25 213.32 672.96
  C 206.87 667.77 197.67 670.07 194.18 677.29
  Q 191.66 682.47 195.45 686.14
  Q 203.33 693.79 213.73 704.54
  C 218.37 709.33 222.81 713.08 228.67 706.67
  Q 234.64 700.14 240.83 693.83
  Q 268.20 665.92 294.99 639.46
  A 0.90 0.89 44.8 0 0 294.98 638.18
  L 280.63 624.26
  A 0.53 0.53 0.0 0 0 279.89 624.26
  C 261.43 642.31 243.94 660.34 225.26 679.22
  C 224.92 679.57 224.26 679.87 223.85 680.19
  Z
  M 164.96 669.76
  L 144.86 669.74
  A 0.37 0.37 0.0 0 0 144.49 670.11
  Q 144.55 693.83 144.45 719.26
  Q 144.39 735.40 159.31 741.93
  Q 162.36 743.26 165.14 743.68
  L 303.40 743.69
  Q 304.03 743.69 304.05 743.06
  Q 304.24 734.58 304.23 725.62
  C 304.22 712.35 313.94 700.85 327.15 699.94
  Q 327.74 699.90 327.76 699.31
  C 328.15 688.69 327.52 678.69 327.83 668.66
  A 0.34 0.33 -89.2 0 0 327.50 668.31
  Q 306.96 668.18 286.70 668.07
  Q 284.78 668.06 283.36 669.48
  Q 259.92 692.88 236.05 717.09
  Q 229.42 723.82 220.06 722.91
  C 213.96 722.31 209.83 718.52 205.50 714.22
  Q 195.89 704.68 186.78 695.18
  Q 183.25 691.50 182.07 688.92
  C 180.61 685.72 181.38 681.88 181.09 678.43
  C 180.81 675.08 182.84 672.83 184.93 670.58
  Q 185.62 669.83 184.60 669.83
  L 164.96 669.76
  Z
  M 318.46 718.96
  Q 317.60 720.66 317.51 722.67
  Q 317.12 732.35 317.28 742.71
  A 1.04 1.03 89.2 0 0 318.32 743.73
  Q 427.13 743.32 536.32 743.48
  C 537.50 743.48 538.64 743.63 539.80 743.77
  Q 540.43 743.84 540.45 743.21
  Q 540.98 726.01 540.21 721.14
  C 538.98 713.28 533.34 712.93 526.61 712.92
  Q 428.67 712.76 332.68 712.92
  C 326.70 712.93 321.54 712.87 318.46 718.96
  Z"
/>
<path fill="#3b3837" d="
  M 752.9806 317.7900
  A 18.35 18.10 44.8 0 1 727.2061 317.7032
  A 18.35 18.10 44.8 0 1 726.9394 291.9300
  A 18.35 18.10 44.8 0 1 752.7139 292.0168
  A 18.35 18.10 44.8 0 1 752.9806 317.7900
  Z
  M 744.2296 309.2288
  A 6.16 5.98 50.0 0 0 744.8509 300.6661
  A 6.16 5.98 50.0 0 0 736.3104 299.7912
  A 6.16 5.98 50.0 0 0 735.6891 308.3539
  A 6.16 5.98 50.0 0 0 744.2296 309.2288
  Z"
/>
<ellipse fill="#6cc8fb" cx="0.00" cy="0.00" transform="translate(740.27,304.51) rotate(50.0)" rx="6.16" ry="5.98"/>
<path fill="#6cc8fb" d="
  M 606.95 392.16
  Q 601.96 392.13 598.50 392.76
  Q 593.85 393.61 589.96 395.97
  Q 573.53 405.92 572.60 425.02
  Q 572.25 432.25 572.31 442.25
  Q 572.58 489.35 572.25 536.05
  Q 572.25 536.82 571.48 536.82
  L 242.69 537.05
  L 242.51 315.41
  A 0.72 0.71 90.0 0 1 243.22 314.69
  L 605.68 314.83
  A 1.36 1.36 0.0 0 1 607.04 316.19
  L 606.95 392.16
  Z
  M 378.98 421.47
  Q 379.34 409.00 379.23 396.50
  C 379.07 379.11 367.03 364.12 349.25 363.77
  C 340.69 363.61 332.74 367.49 327.18 373.50
  Q 317.96 383.46 318.07 397.91
  Q 318.34 433.13 318.24 470.73
  Q 318.21 482.50 324.92 491.82
  C 334.24 504.76 351.77 509.84 365.83 503.03
  C 370.93 500.57 376.65 495.75 380.43 491.73
  Q 409.13 461.21 437.04 433.24
  A 0.87 0.86 -44.3 0 1 438.28 433.25
  Q 458.60 454.51 480.13 476.10
  C 487.86 483.85 495.19 492.46 504.05 498.86
  C 513.74 505.85 527.47 507.30 538.22 501.14
  Q 555.49 491.24 556.86 471.42
  Q 557.19 466.65 557.18 462.44
  Q 557.08 429.70 557.31 398.95
  C 557.39 388.66 555.45 381.01 548.48 373.63
  C 535.84 360.26 516.70 360.66 504.07 373.81
  C 497.63 380.52 495.87 388.84 495.75 397.91
  Q 495.61 409.07 495.97 421.06
  Q 495.99 421.86 495.42 421.30
  Q 478.44 404.35 461.71 386.72
  C 457.06 381.81 450.97 376.24 444.35 374.63
  C 430.41 371.26 420.20 376.44 411.22 386.47
  Q 394.17 405.52 379.61 421.72
  Q 378.95 422.45 378.98 421.47
  Z"
/>
<path fill="#3b3837" d="
  M 378.98 421.47
  Q 378.95 422.45 379.61 421.72
  Q 394.17 405.52 411.22 386.47
  C 420.20 376.44 430.41 371.26 444.35 374.63
  C 450.97 376.24 457.06 381.81 461.71 386.72
  Q 478.44 404.35 495.42 421.30
  Q 495.99 421.86 495.97 421.06
  Q 495.61 409.07 495.75 397.91
  C 495.87 388.84 497.63 380.52 504.07 373.81
  C 516.70 360.66 535.84 360.26 548.48 373.63
  C 555.45 381.01 557.39 388.66 557.31 398.95
  Q 557.08 429.70 557.18 462.44
  Q 557.19 466.65 556.86 471.42
  Q 555.49 491.24 538.22 501.14
  C 527.47 507.30 513.74 505.85 504.05 498.86
  C 495.19 492.46 487.86 483.85 480.13 476.10
  Q 458.60 454.51 438.28 433.25
  A 0.87 0.86 -44.3 0 0 437.04 433.24
  Q 409.13 461.21 380.43 491.73
  C 376.65 495.75 370.93 500.57 365.83 503.03
  C 351.77 509.84 334.24 504.76 324.92 491.82
  Q 318.21 482.50 318.24 470.73
  Q 318.34 433.13 318.07 397.91
  Q 317.96 383.46 327.18 373.50
  C 332.74 367.49 340.69 363.61 349.25 363.77
  C 367.03 364.12 379.07 379.11 379.23 396.50
  Q 379.34 409.00 378.98 421.47
  Z
  M 373.00 445.20
  C 371.46 445.36 370.00 444.41 368.73 443.64
  Q 366.40 442.22 366.35 439.43
  Q 366.02 418.99 366.37 397.33
  Q 366.47 390.99 364.93 387.26
  C 360.08 375.49 344.72 373.76 335.99 382.43
  Q 331.01 387.37 330.96 394.92
  Q 330.68 436.06 330.70 472.50
  C 330.72 487.83 347.93 498.20 361.42 490.94
  Q 367.20 487.83 371.69 482.91
  Q 402.77 448.84 432.79 418.83
  Q 434.51 417.10 436.62 415.77
  Q 437.68 415.10 438.75 415.75
  Q 440.19 416.63 441.40 417.85
  Q 470.96 447.82 498.95 477.50
  C 505.16 484.09 511.51 490.88 520.88 492.15
  Q 529.35 493.30 536.32 487.17
  Q 543.11 481.19 544.11 474.65
  Q 544.75 470.44 544.65 460.58
  Q 544.29 426.46 544.47 396.83
  Q 544.52 389.55 541.01 384.28
  C 536.84 378.01 528.21 374.97 521.20 377.50
  Q 508.73 382.01 508.52 395.21
  Q 508.26 411.24 508.46 439.26
  C 508.50 444.83 504.40 447.27 500.01 443.31
  Q 493.58 437.48 486.75 430.53
  Q 469.98 413.45 451.29 394.32
  C 445.82 388.72 440.18 385.50 431.85 387.06
  C 427.84 387.81 424.83 391.05 422.19 393.94
  Q 400.22 417.98 374.82 444.30
  A 3.00 2.98 -71.1 0 1 373.00 445.20
  Z"
/>
<path fill="#68719c" d="
  M 373.00 445.20
  A 3.00 2.98 -71.1 0 0 374.82 444.30
  Q 400.22 417.98 422.19 393.94
  C 424.83 391.05 427.84 387.81 431.85 387.06
  C 440.18 385.50 445.82 388.72 451.29 394.32
  Q 469.98 413.45 486.75 430.53
  Q 493.58 437.48 500.01 443.31
  C 504.40 447.27 508.50 444.83 508.46 439.26
  Q 508.26 411.24 508.52 395.21
  Q 508.73 382.01 521.20 377.50
  C 528.21 374.97 536.84 378.01 541.01 384.28
  Q 544.52 389.55 544.47 396.83
  Q 544.29 426.46 544.65 460.58
  Q 544.75 470.44 544.11 474.65
  Q 543.11 481.19 536.32 487.17
  Q 529.35 493.30 520.88 492.15
  C 511.51 490.88 505.16 484.09 498.95 477.50
  Q 470.96 447.82 441.40 417.85
  Q 440.19 416.63 438.75 415.75
  Q 437.68 415.10 436.62 415.77
  Q 434.51 417.10 432.79 418.83
  Q 402.77 448.84 371.69 482.91
  Q 367.20 487.83 361.42 490.94
  C 347.93 498.20 330.72 487.83 330.70 472.50
  Q 330.68 436.06 330.96 394.92
  Q 331.01 387.37 335.99 382.43
  C 344.72 373.76 360.08 375.49 364.93 387.26
  Q 366.47 390.99 366.37 397.33
  Q 366.02 418.99 366.35 439.43
  Q 366.40 442.22 368.73 443.64
  C 370.00 444.41 371.46 445.36 373.00 445.20
  Z"
/>
<path fill="#9ad7fd" d="
  M 611.89 405.25
  Q 605.05 414.09 605.06 423.50
  Q 605.33 573.62 605.20 723.75
  Q 605.20 733.52 608.79 744.07
  Q 602.81 743.99 597.27 741.53
  Q 589.46 738.06 586.43 730.59
  Q 584.93 726.88 584.87 716.25
  Q 584.82 706.92 584.82 697.50
  Q 584.85 585.76 585.02 472.75
  Q 585.06 451.75 584.89 433.00
  C 584.85 428.93 584.83 423.69 585.99 420.06
  Q 589.61 408.67 602.00 405.78
  Q 604.84 405.12 611.89 405.25
  Z"
/>
<path fill="#6cc8fb" d="
  M 611.89 405.25
  Q 736.22 405.41 785.00 405.27
  C 789.48 405.25 794.44 405.32 798.25 407.34
  C 807.61 412.29 809.37 419.31 809.43 428.99
  C 809.62 462.79 809.15 501.41 809.21 540.75
  Q 809.35 629.78 809.32 720.81
  C 809.32 727.38 807.92 730.84 803.92 735.66
  Q 797.20 743.77 785.99 743.80
  Q 747.72 743.92 708.49 743.80
  Q 694.86 743.76 683.00 743.83
  Q 646.20 744.06 608.79 744.07
  Q 605.20 733.52 605.20 723.75
  Q 605.33 573.62 605.06 423.50
  Q 605.05 414.09 611.89 405.25
  Z
  M 729.90 421.68
  A 6.46 6.46 0.0 0 0 723.44 415.22
  L 677.76 415.22
  A 6.46 6.46 0.0 0 0 671.30 421.68
  L 671.30 422.02
  A 6.46 6.46 0.0 0 0 677.76 428.48
  L 723.44 428.48
  A 6.46 6.46 0.0 0 0 729.90 422.02
  L 729.90 421.68
  Z
  M 670.08 609.92
  A 0.54 0.54 0.0 0 1 669.40 609.84
  Q 665.08 605.31 660.51 601.49
  C 652.48 594.77 642.69 592.37 633.34 598.42
  Q 621.54 606.05 621.50 619.68
  C 621.48 625.02 623.31 630.29 626.83 634.17
  Q 637.67 646.14 652.36 660.15
  C 657.15 664.72 661.38 667.76 667.38 668.34
  Q 679.86 669.55 688.29 660.84
  Q 717.53 630.64 746.47 601.74
  Q 748.40 599.81 750.42 598.09
  A 2.68 2.66 -61.5 0 1 752.46 597.48
  Q 761.89 598.59 769.19 595.37
  C 777.44 591.73 783.38 583.78 784.74 575.07
  Q 787.59 556.82 772.51 545.19
  C 763.34 538.12 749.95 536.83 740.00 542.51
  Q 735.06 545.34 728.03 552.79
  Q 719.45 561.88 710.78 570.32
  Q 691.80 588.78 673.37 607.32
  Q 671.91 608.79 670.08 609.92
  Z
  M 683.6832 736.3567
  A 25.89 25.51 122.7 0 0 719.1369 728.3515
  A 25.89 25.51 122.7 0 0 711.6568 692.7833
  A 25.89 25.51 122.7 0 0 676.2031 700.7885
  A 25.89 25.51 122.7 0 0 683.6832 736.3567
  Z"
/>
<rect fill="#3b3837" x="671.30" y="415.22" width="58.60" height="13.26" rx="6.46"/>
<path fill="#3b3837" d="
  M 869.8894 477.0503
  A 5.05 5.05 0.0 0 1 864.8306 482.0914
  L 840.2306 482.0485
  A 5.05 5.05 0.0 0 1 835.1895 476.9897
  L 835.2306 453.4297
  A 5.05 5.05 0.0 0 1 840.2894 448.3886
  L 864.8894 448.4315
  A 5.05 5.05 0.0 0 1 869.9305 453.4903
  L 869.8894 477.0503
  Z
  M 858.2981 464.8720
  A 4.31 4.31 0.0 0 0 854.2433 460.3210
  L 850.6693 460.1149
  A 4.31 4.31 0.0 0 0 846.1183 464.1697
  L 846.0619 465.1480
  A 4.31 4.31 0.0 0 0 850.1167 469.6990
  L 853.6907 469.9051
  A 4.31 4.31 0.0 0 0 858.2417 465.8503
  L 858.2981 464.8720
  Z"
/>
<rect fill="#6cc8fb" x="-6.10" y="-4.80" transform="translate(852.18,465.01) rotate(3.3)" width="12.20" height="9.60" rx="4.31"/>
<rect fill="#f94d43" x="112.48" y="513.28" width="32.32" height="23.12" rx="0.62"/>
<path fill="#3b3837" d="
  M 670.08 609.92
  Q 671.91 608.79 673.37 607.32
  Q 691.80 588.78 710.78 570.32
  Q 719.45 561.88 728.03 552.79
  Q 735.06 545.34 740.00 542.51
  C 749.95 536.83 763.34 538.12 772.51 545.19
  Q 787.59 556.82 784.74 575.07
  C 783.38 583.78 777.44 591.73 769.19 595.37
  Q 761.89 598.59 752.46 597.48
  A 2.68 2.66 -61.5 0 0 750.42 598.09
  Q 748.40 599.81 746.47 601.74
  Q 717.53 630.64 688.29 660.84
  Q 679.86 669.55 667.38 668.34
  C 661.38 667.76 657.15 664.72 652.36 660.15
  Q 637.67 646.14 626.83 634.17
  C 623.31 630.29 621.48 625.02 621.50 619.68
  Q 621.54 606.05 633.34 598.42
  C 642.69 592.37 652.48 594.77 660.51 601.49
  Q 665.08 605.31 669.40 609.84
  A 0.54 0.54 0.0 0 0 670.08 609.92
  Z
  M 746.97 583.54
  A 3.34 3.34 0.0 0 1 749.73 582.86
  C 756.06 584.14 763.09 586.07 768.17 580.95
  C 772.24 576.85 773.81 570.79 771.84 565.26
  C 768.84 556.81 761.04 551.38 751.98 552.30
  C 745.87 552.93 742.17 556.87 738.20 560.89
  Q 702.41 597.09 672.82 625.16
  Q 670.15 627.69 667.65 625.15
  Q 660.71 618.13 652.79 611.32
  C 648.02 607.21 640.56 606.51 636.35 611.84
  C 632.74 616.40 633.94 623.30 637.73 627.25
  Q 646.08 635.96 662.55 651.51
  C 667.44 656.13 674.13 657.00 678.98 651.98
  Q 708.80 621.09 739.27 590.52
  Q 743.00 586.78 746.97 583.54
  Z"
/>
<path fill="#fcfdf8" d="
  M 746.97 583.54
  Q 743.00 586.78 739.27 590.52
  Q 708.80 621.09 678.98 651.98
  C 674.13 657.00 667.44 656.13 662.55 651.51
  Q 646.08 635.96 637.73 627.25
  C 633.94 623.30 632.74 616.40 636.35 611.84
  C 640.56 606.51 648.02 607.21 652.79 611.32
  Q 660.71 618.13 667.65 625.15
  Q 670.15 627.69 672.82 625.16
  Q 702.41 597.09 738.20 560.89
  C 742.17 556.87 745.87 552.93 751.98 552.30
  C 761.04 551.38 768.84 556.81 771.84 565.26
  C 773.81 570.79 772.24 576.85 768.17 580.95
  C 763.09 586.07 756.06 584.14 749.73 582.86
  A 3.34 3.34 0.0 0 0 746.97 583.54
  Z"
/>
<ellipse fill="#3b3837" cx="0.00" cy="0.00" transform="translate(431.55,577.69) rotate(-9.6)" rx="14.59" ry="14.09"/>
<path fill="#f94d43" d="
  M 869.55 640.74
  C 879.61 633.34 883.78 621.63 881.94 608.96
  Q 879.80 594.21 867.05 586.77
  C 855.42 579.99 840.76 581.00 830.92 590.23
  Q 825.16 595.64 822.75 602.41
  Q 822.00 604.54 822.00 602.28
  L 822.01 572.76
  A 0.46 0.46 0.0 0 1 822.47 572.30
  Q 842.64 572.18 863.25 572.26
  C 871.12 572.30 879.30 575.47 882.59 582.53
  Q 884.06 585.69 883.96 591.16
  Q 883.76 601.97 883.95 610.90
  Q 884.13 619.35 884.11 630.07
  Q 884.02 673.51 884.04 719.44
  Q 884.04 734.84 871.27 741.15
  C 867.44 743.05 864.03 743.68 859.86 743.72
  Q 837.28 743.94 814.53 744.07
  A 0.66 0.66 0.0 0 1 814.05 742.96
  C 819.09 737.56 822.21 732.26 822.38 725.01
  Q 822.77 707.74 822.50 691.25
  C 822.17 670.55 822.28 649.91 822.10 629.16
  Q 822.09 627.84 822.69 629.01
  Q 831.31 645.76 850.37 646.78
  Q 860.59 647.32 869.55 640.74
  Z
  M 864.9160 685.9416
  A 6.46 6.46 0.0 0 0 858.4673 679.4704
  L 858.1073 679.4697
  A 6.46 6.46 0.0 0 0 851.6361 685.9184
  L 851.5640 727.2184
  A 6.46 6.46 0.0 0 0 858.0127 733.6896
  L 858.3727 733.6903
  A 6.46 6.46 0.0 0 0 864.8439 727.2416
  L 864.9160 685.9416
  Z
  M 843.03 686.32
  A 6.54 6.54 0.0 0 0 836.49 679.78
  L 836.11 679.78
  A 6.54 6.54 0.0 0 0 829.57 686.32
  L 829.57 727.40
  A 6.54 6.54 0.0 0 0 836.11 733.94
  L 836.49 733.94
  A 6.54 6.54 0.0 0 0 843.03 727.40
  L 843.03 686.32
  Z"
/>
<path fill="#fcfdf8" d="
  M 856.3095 632.7148
  A 19.32 18.99 73.4 0 1 832.5915 619.6252
  A 19.32 18.99 73.4 0 1 845.2705 595.6852
  A 19.32 18.99 73.4 0 1 868.9885 608.7748
  A 19.32 18.99 73.4 0 1 856.3095 632.7148
  Z
  M 855.2921 622.2615
  A 9.08 8.83 61.0 0 0 858.6129 610.0391
  A 9.08 8.83 61.0 0 0 846.4879 606.3785
  A 9.08 8.83 61.0 0 0 843.1671 618.6009
  A 9.08 8.83 61.0 0 0 855.2921 622.2615
  Z"
/>
<path fill="#9ad7fd" d="
  M 311.50 604.91
  L 297.60 622.61
  A 0.53 0.53 0.0 0 1 296.82 622.67
  L 287.62 613.90
  A 1.26 1.25 -48.9 0 1 287.51 612.21
  L 292.64 605.81
  Q 296.34 608.38 297.48 612.86
  A 0.42 0.41 58.0 0 0 298.20 613.03
  Q 298.80 612.32 298.64 611.35
  Q 298.55 610.78 298.84 610.28
  Q 302.72 603.66 311.50 604.91
  Z"
/>
<ellipse fill="#3b3837" cx="0.00" cy="0.00" transform="translate(850.89,614.32) rotate(61.0)" rx="9.08" ry="8.83"/>
<path fill="#f94d43" d="
  M 221.62 662.89
  C 217.59 660.30 212.85 658.21 208.14 657.62
  C 196.82 656.19 184.69 656.34 173.02 656.74
  C 163.76 657.06 154.74 656.68 145.47 656.95
  Q 144.55 656.98 144.55 656.06
  Q 144.48 642.44 144.54 627.31
  Q 144.56 622.00 145.84 618.56
  C 147.64 613.70 152.83 608.63 157.85 607.10
  Q 160.74 606.21 165.33 606.23
  Q 221.29 606.41 276.95 606.21
  Q 277.83 606.21 277.23 606.86
  Q 250.49 636.18 223.20 662.73
  A 1.28 1.27 38.9 0 1 221.62 662.89
  Z"
/>
<path fill="#f94d43" d="
  M 322.61 617.72
  Q 324.42 620.64 327.15 621.37
  A 1.19 1.19 0.0 0 1 328.03 622.52
  L 328.02 655.99
  A 0.75 0.75 0.0 0 1 327.26 656.74
  L 296.61 656.36
  A 0.42 0.41 -67.8 0 1 296.32 655.66
  L 310.52 640.82
  A 0.89 0.88 50.6 0 0 310.62 639.73
  L 306.25 633.08
  A 1.57 1.57 0.0 0 1 306.52 631.04
  Q 313.03 625.30 319.22 620.82
  Q 320.77 619.71 321.30 618.02
  Q 321.88 616.16 323.45 614.83
  Q 324.01 614.36 324.17 615.07
  C 324.54 616.67 326.24 617.20 326.79 618.65
  Q 328.00 621.88 325.88 619.16
  Q 325.23 618.32 324.87 617.30
  Q 324.46 616.13 323.27 616.49
  Q 322.99 616.58 322.76 616.77
  Q 322.27 617.18 322.61 617.72
  Z"
/>
<path fill="#fcfdf8" d="
  M 378.42 621.92
  L 363.43 699.84
  A 0.77 0.77 0.0 0 1 362.67 700.47
  L 340.72 700.45
  A 0.77 0.77 0.0 0 1 339.95 699.68
  L 340.30 621.61
  A 0.77 0.77 0.0 0 1 341.07 620.84
  L 377.67 621.01
  A 0.77 0.77 0.0 0 1 378.42 621.92
  Z"
/>
<path fill="#fcfdf8" d="
  M 392.10 620.91
  L 470.85 621.00
  A 0.35 0.35 0.0 0 1 471.20 621.29
  L 483.64 699.84
  A 0.35 0.35 0.0 0 1 483.29 700.24
  L 377.23 700.27
  A 0.35 0.35 0.0 0 1 376.89 699.85
  L 391.76 621.20
  A 0.35 0.35 0.0 0 1 392.10 620.91
  Z"
/>
<path fill="#fcfdf8" d="
  M 497.65 700.12
  A 0.33 0.33 0.0 0 1 497.31 699.83
  Q 496.42 693.19 495.16 686.23
  Q 489.13 652.69 484.16 622.45
  Q 483.95 621.18 485.24 621.18
  L 571.26 621.52
  A 0.77 0.76 0.4 0 1 572.03 622.29
  Q 571.91 669.78 572.14 720.22
  C 572.18 727.21 572.72 733.29 576.47 739.02
  Q 577.78 741.01 579.20 743.02
  A 0.58 0.58 0.0 0 1 578.73 743.94
  L 554.25 744.15
  A 0.79 0.79 0.0 0 1 553.45 743.37
  Q 553.38 736.13 553.59 729.40
  Q 553.85 720.61 552.46 715.97
  Q 549.09 704.74 537.54 701.11
  Q 534.04 700.01 528.25 699.99
  Q 512.14 699.92 497.65 700.12
  Z"
/>
<path fill="#fcfdf8" d="
  M 223.85 680.19
  C 224.26 679.87 224.92 679.57 225.26 679.22
  C 243.94 660.34 261.43 642.31 279.89 624.26
  A 0.53 0.53 0.0 0 1 280.63 624.26
  L 294.98 638.18
  A 0.90 0.89 44.8 0 1 294.99 639.46
  Q 268.20 665.92 240.83 693.83
  Q 234.64 700.14 228.67 706.67
  C 222.81 713.08 218.37 709.33 213.73 704.54
  Q 203.33 693.79 195.45 686.14
  Q 191.66 682.47 194.18 677.29
  C 197.67 670.07 206.87 667.77 213.32 672.96
  Q 217.40 676.25 221.69 680.11
  A 1.69 1.69 0.0 0 0 223.85 680.19
  Z"
/>
<path fill="#6cc8fb" d="
  M 165.14 743.68
  Q 163.95 711.44 164.33 679.09
  C 164.37 676.05 164.76 672.90 164.96 669.76
  L 184.60 669.83
  Q 185.62 669.83 184.93 670.58
  C 182.84 672.83 180.81 675.08 181.09 678.43
  C 181.38 681.88 180.61 685.72 182.07 688.92
  Q 183.25 691.50 186.78 695.18
  Q 195.89 704.68 205.50 714.22
  C 209.83 718.52 213.96 722.31 220.06 722.91
  Q 229.42 723.82 236.05 717.09
  Q 259.92 692.88 283.36 669.48
  Q 284.78 668.06 286.70 668.07
  Q 306.96 668.18 327.50 668.31
  A 0.34 0.33 -89.2 0 1 327.83 668.66
  C 327.52 678.69 328.15 688.69 327.76 699.31
  Q 327.74 699.90 327.15 699.94
  C 313.94 700.85 304.22 712.35 304.23 725.62
  Q 304.24 734.58 304.05 743.06
  Q 304.03 743.69 303.40 743.69
  L 165.14 743.68
  Z"
/>
<path fill="#9ad7fd" d="
  M 164.96 669.76
  C 164.76 672.90 164.37 676.05 164.33 679.09
  Q 163.95 711.44 165.14 743.68
  Q 162.36 743.26 159.31 741.93
  Q 144.39 735.40 144.45 719.26
  Q 144.55 693.83 144.49 670.11
  A 0.37 0.37 0.0 0 1 144.86 669.74
  L 164.96 669.76
  Z"
/>
<rect fill="#3b3837" x="-6.64" y="-27.11" transform="translate(858.24,706.58) rotate(0.1)" width="13.28" height="54.22" rx="6.46"/>
<rect fill="#3b3837" x="829.57" y="679.78" width="13.46" height="54.16" rx="6.54"/>
<path fill="#3b3837" d="
  M 683.6832 736.3567
  A 25.89 25.51 122.7 0 1 676.2031 700.7885
  A 25.89 25.51 122.7 0 1 711.6568 692.7833
  A 25.89 25.51 122.7 0 1 719.1369 728.3515
  A 25.89 25.51 122.7 0 1 683.6832 736.3567
  Z
  M 710.57 714.69
  A 12.91 12.91 0.0 0 0 697.66 701.78
  A 12.91 12.91 0.0 0 0 684.75 714.69
  A 12.91 12.91 0.0 0 0 697.66 727.60
  A 12.91 12.91 0.0 0 0 710.57 714.69
  Z"
/>
<circle fill="#6cc8fb" cx="697.66" cy="714.69" r="12.91"/>
<path fill="#fcfdf8" d="
  M 318.46 718.96
  C 321.54 712.87 326.70 712.93 332.68 712.92
  Q 428.67 712.76 526.61 712.92
  C 533.34 712.93 538.98 713.28 540.21 721.14
  Q 540.98 726.01 540.45 743.21
  Q 540.43 743.84 539.80 743.77
  C 538.64 743.63 537.50 743.48 536.32 743.48
  Q 427.13 743.32 318.32 743.73
  A 1.04 1.03 89.2 0 1 317.28 742.71
  Q 317.12 732.35 317.51 722.67
  Q 317.60 720.66 318.46 718.96
  Z"
/>
<path fill="#3b3837" d="
  M 392.91 967.97
  C 385.58 965.19 372.52 961.71 369.93 953.12
  C 367.79 946.03 370.77 938.67 377.65 935.63
  C 385.81 932.01 396.77 932.78 403.46 939.29
  Q 407.80 943.50 407.31 949.51
  Q 407.26 950.21 406.56 950.11
  L 400.68 949.22
  Q 400.02 949.12 399.90 948.47
  C 398.27 939.85 389.64 938.41 382.42 940.75
  Q 378.36 942.06 377.18 946.00
  C 375.55 951.42 379.56 955.81 384.44 957.52
  C 394.32 960.99 407.86 963.94 407.90 977.30
  C 407.92 984.00 404.08 989.24 397.76 991.19
  C 384.44 995.30 369.97 990.37 367.70 975.26
  A 0.87 0.87 0.0 0 1 368.56 974.26
  L 374.75 974.26
  Q 375.61 974.26 375.71 975.11
  Q 376.89 985.48 386.02 986.68
  C 391.43 987.39 397.36 986.09 399.73 980.73
  C 402.46 974.54 398.37 970.04 392.91 967.97
  Z"
/>
<path fill="#3b3837" d="
  M 470.56 967.51
  C 472.30 969.49 473.94 971.49 475.24 973.77
  Q 480.25 982.61 484.53 990.81
  Q 485.01 991.73 483.97 991.74
  L 479.15 991.76
  Q 477.99 991.77 477.28 990.86
  Q 476.04 989.28 474.99 987.48
  Q 469.56 978.24 464.31 970.49
  Q 462.65 968.05 459.94 967.82
  Q 456.00 967.48 451.89 967.60
  A 0.66 0.66 0.0 0 0 451.25 968.26
  L 451.20 991.03
  Q 451.20 991.51 450.72 991.51
  L 444.01 991.56
  Q 443.41 991.56 443.41 990.95
  L 443.52 934.20
  A 0.42 0.42 0.0 0 1 443.93 933.78
  Q 454.01 933.75 464.12 934.10
  C 477.02 934.55 484.26 942.95 481.23 956.24
  C 480.04 961.44 475.79 964.60 470.81 966.49
  Q 469.95 966.82 470.56 967.51
  Z
  M 451.33 941.21
  L 451.19 960.75
  A 0.61 0.61 0.0 0 0 451.80 961.36
  L 464.15 961.45
  A 9.98 9.18 0.4 0 0 474.19 952.34
  L 474.21 949.94
  A 9.98 9.18 0.4 0 0 464.29 940.69
  L 451.94 940.60
  A 0.61 0.61 0.0 0 0 451.33 941.21
  Z"
/>
<rect fill="#3b3837" x="-3.98" y="-28.83" transform="translate(644.19,962.94) rotate(-0.1)" width="7.96" height="57.66" rx="0.26"/>
<path fill="#3b3837" d="
  M 668.89 967.43
  L 669.03 991.24
  Q 669.03 991.76 668.51 991.76
  L 662.02 991.74
  A 0.47 0.46 90.0 0 1 661.56 991.27
  L 661.45 934.22
  Q 661.45 933.93 661.74 933.94
  Q 669.64 934.06 678.35 934.03
  Q 686.96 934.00 691.35 936.12
  Q 701.07 940.83 700.06 953.26
  C 699.53 959.83 694.68 962.87 689.26 965.18
  Q 688.63 965.45 688.98 966.04
  L 704.11 991.36
  A 0.15 0.15 0.0 0 1 703.99 991.58
  Q 696.87 991.87 696.00 991.51
  Q 695.95 991.49 695.93 991.45
  Q 689.39 980.42 681.77 968.81
  A 3.47 3.45 73.9 0 0 678.96 967.25
  L 669.32 967.01
  A 0.42 0.42 0.0 0 0 668.89 967.43
  Z
  M 668.72 940.95
  L 668.86 960.59
  A 0.33 0.33 0.0 0 0 669.19 960.92
  L 682.47 960.83
  A 10.07 9.28 -0.4 0 0 692.48 951.48
  L 692.46 949.74
  A 10.07 9.28 -0.4 0 0 682.33 940.53
  L 669.05 940.62
  A 0.33 0.33 0.0 0 0 668.72 940.95
  Z"
/>
<rect fill="#3b3837" x="-3.77" y="-28.44" transform="translate(352.23,962.67) rotate(0.1)" width="7.54" height="56.88" rx="0.35"/>
<path fill="#3b3837" d="
  M 501.48 965.20
  L 501.56 984.80
  A 0.66 0.66 0.0 0 0 502.21 985.45
  L 529.86 985.58
  A 0.66 0.66 0.0 0 1 530.52 986.24
  L 530.51 991.32
  A 0.66 0.66 0.0 0 1 529.84 991.98
  L 494.93 991.62
  A 0.66 0.66 0.0 0 1 494.28 990.96
  L 494.29 934.97
  A 0.66 0.66 0.0 0 1 494.95 934.31
  L 529.41 934.23
  A 0.66 0.66 0.0 0 1 530.07 934.89
  L 530.10 940.07
  A 0.66 0.66 0.0 0 1 529.43 940.74
  L 502.17 940.63
  A 0.66 0.66 0.0 0 0 501.51 941.30
  L 501.69 957.57
  A 0.66 0.66 0.0 0 0 502.35 958.23
  L 525.40 958.47
  A 0.66 0.66 0.0 0 1 526.06 959.10
  L 526.27 964.03
  A 0.66 0.66 0.0 0 1 525.61 964.71
  L 502.15 964.54
  A 0.66 0.66 0.0 0 0 501.48 965.20
  Z"
/>
<path fill="#3b3837" d="
  M 547.59 969.26
  L 547.55 990.97
  Q 547.55 991.74 546.78 991.74
  L 541.01 991.72
  A 0.96 0.95 0.3 0 1 540.05 990.76
  L 540.28 934.98
  A 0.74 0.74 0.0 0 1 541.02 934.24
  Q 548.43 934.29 557.62 934.11
  Q 565.87 933.95 570.15 935.82
  Q 579.86 940.08 579.75 952.13
  C 579.64 962.80 572.49 968.28 562.51 968.45
  Q 555.51 968.56 548.45 968.42
  Q 547.59 968.40 547.59 969.26
  Z
  M 547.73 941.38
  L 547.73 961.36
  A 0.87 0.87 0.0 0 0 548.60 962.23
  L 562.30 962.23
  A 9.99 9.54 0.0 0 0 572.29 952.69
  L 572.29 950.05
  A 9.99 9.54 -0.0 0 0 562.30 940.51
  L 548.60 940.51
  A 0.87 0.87 0.0 0 0 547.73 941.38
  Z"
/>
<path fill="#3b3837" d="
  M 594.83 977.10
  L 588.90 991.93
  A 0.35 0.34 -78.5 0 1 588.58 992.15
  Q 584.69 992.13 581.17 992.02
  A 0.11 0.10 -77.0 0 1 581.08 991.87
  Q 591.26 967.25 599.69 944.72
  Q 601.52 939.84 603.67 934.67
  A 0.71 0.71 0.0 0 1 604.31 934.24
  L 608.97 934.23
  A 1.93 1.92 79.3 0 1 610.76 935.46
  L 632.88 991.61
  Q 632.96 991.79 632.76 991.79
  L 625.17 991.48
  Q 624.91 991.47 624.81 991.22
  L 619.32 977.39
  Q 618.95 976.47 617.96 976.47
  L 595.74 976.49
  A 0.98 0.96 10.5 0 0 594.83 977.10
  Z
  M 597.67 969.67
  A 0.50 0.50 0.0 0 0 598.15 970.35
  L 615.94 969.65
  A 0.50 0.50 0.0 0 0 616.39 968.97
  L 607.65 945.77
  A 0.50 0.50 0.0 0 0 606.71 945.77
  L 597.67 969.67
  Z"
/>
<path fill="#fcfdf8" d="
  M 451.33 941.21
  A 0.61 0.61 0.0 0 1 451.94 940.60
  L 464.29 940.69
  A 9.98 9.18 0.4 0 1 474.21 949.94
  L 474.19 952.34
  A 9.98 9.18 0.4 0 1 464.15 961.45
  L 451.80 961.36
  A 0.61 0.61 0.0 0 1 451.19 960.75
  L 451.33 941.21
  Z"
/>
<path fill="#fcfdf8" d="
  M 547.73 941.38
  A 0.87 0.87 0.0 0 1 548.60 940.51
  L 562.30 940.51
  A 9.99 9.54 0.0 0 1 572.29 950.05
  L 572.29 952.69
  A 9.99 9.54 -0.0 0 1 562.30 962.23
  L 548.60 962.23
  A 0.87 0.87 0.0 0 1 547.73 961.36
  L 547.73 941.38
  Z"
/>
<path fill="#fcfdf8" d="
  M 668.72 940.95
  A 0.33 0.33 0.0 0 1 669.05 940.62
  L 682.33 940.53
  A 10.07 9.28 -0.4 0 1 692.46 949.74
  L 692.48 951.48
  A 10.07 9.28 -0.4 0 1 682.47 960.83
  L 669.19 960.92
  A 0.33 0.33 0.0 0 1 668.86 960.59
  L 668.72 940.95
  Z"
/>
<path fill="#fcfdf8" d="
  M 597.67 969.67
  L 606.71 945.77
  A 0.50 0.50 0.0 0 1 607.65 945.77
  L 616.39 968.97
  A 0.50 0.50 0.0 0 1 615.94 969.65
  L 598.15 970.35
  A 0.50 0.50 0.0 0 1 597.67 969.67
  Z"
/>
<rect fill="#3b3837" x="-10.08" y="-3.17" transform="translate(423.83,970.89) rotate(-0.2)" width="20.16" height="6.34" rx="1.42"/>
</svg>
